<svg xmlns="http://www.w3.org/2000/svg" width="772" height="227" viewBox="0 0 772 227">
    <g fill="none" fill-rule="evenodd">
        <g transform="translate(2 18)">
            <path fill="#095841" fill-rule="nonzero" d="M45.469 108.727l2.27-.328c.072-.4.14-.939.204-1.613.064-.675.123-1.385.178-2.133a61.963 61.963 0 0 0 .164-4.183V85.44a18.092 18.092 0 0 1 .11-1.049c.036-.273.068-.546.095-.82a5.83 5.83 0 0 1 .096-.656 123.433 123.433 0 0 1-3.008-.52 68.77 68.77 0 0 0-1.723-.3 50.265 50.265 0 0 0-1.476-.22l-.629 1.204c1.203.31 2.074.633 2.611.97.538.338.807.77.807 1.3v17.09c0 .528.005 1.093.014 1.695.009.601.027 1.194.054 1.777.028.583.06 1.126.096 1.627.036.501.082.898.137 1.19zM34.367 99.13c.966 0 1.86-.146 2.68-.438a6.759 6.759 0 0 0 2.133-1.203 5.628 5.628 0 0 0 1.422-1.818c.346-.702.52-1.463.52-2.283 0-.711-.133-1.372-.397-1.983a5.373 5.373 0 0 0-1.108-1.64 6.619 6.619 0 0 0-1.681-1.231 7.64 7.64 0 0 0-2.147-.725c.073-.273.141-.542.205-.806a3 3 0 0 1 .205-.615c-.2-.055-.46-.114-.78-.178-.318-.064-.65-.132-.997-.205a59.42 59.42 0 0 1-1.805-.41l-.437 1.039c.455.145.76.3.916.464.155.165.223.392.205.684a7.662 7.662 0 0 0-2.324.615c-.711.32-1.322.73-1.832 1.23a5.5 5.5 0 0 0-1.19 1.71 5.007 5.007 0 0 0-.424 2.05c0 .82.169 1.582.506 2.284a5.467 5.467 0 0 0 1.408 1.818c.602.51 1.322.912 2.16 1.203.839.292 1.76.438 2.762.438zm.055-1.942c-.492 0-.957-.095-1.395-.287a3.933 3.933 0 0 1-1.175-.793 3.674 3.674 0 0 1-.82-1.217c-.201-.474-.302-1.002-.302-1.586 0-.565.1-1.089.301-1.572.2-.483.474-.902.82-1.258a4.113 4.113 0 0 1 1.176-.847c.438-.21.903-.315 1.395-.315a3.1 3.1 0 0 1 1.38.315c.43.21.803.492 1.122.847a4.23 4.23 0 0 1 1.053 2.83c0 .584-.092 1.112-.274 1.586a3.546 3.546 0 0 1-1.9 2.01 3.346 3.346 0 0 1-1.381.287zm36.23 5.168l2.38-.383c.054-.31.113-.683.177-1.12.064-.438.118-.903.164-1.395.046-.492.082-.98.11-1.463.027-.483.04-.934.04-1.354v-2.488h3.979c.392 0 .715.01.97.027l.329-2.46c-.328.072-.711.14-1.149.205-.437.063-.897.123-1.38.177l-1.436.164c-.474.055-.912.1-1.313.137v-6.945c0-.018.014-.132.041-.342l.096-.725.11-.82c.036-.273.072-.492.109-.656-.346-.055-.78-.128-1.299-.219-.52-.091-1.07-.191-1.654-.3a58.503 58.503 0 0 0-3.281-.52l-.63 1.203c1.24.31 2.12.638 2.64.984.519.347.779.775.779 1.285v9.79a44.401 44.401 0 0 1-3.993.67c-1.403.173-2.862.332-4.375.478V92.84c0-.055.01-.178.028-.37.018-.19.04-.405.068-.642l.082-.711c.027-.237.06-.438.096-.602a18.602 18.602 0 0 0-1.19-.205 60.761 60.761 0 0 0-1.353-.177 43.323 43.323 0 0 0-2.434-.219l-.492 1.148c.492.091.88.183 1.162.274.283.09.492.2.63.328a.856.856 0 0 1 .259.478c.036.192.055.424.055.698v3.664l-1.094.054c-.365.019-.738.037-1.121.055-.2 0-.506-.009-.916-.027a91.92 91.92 0 0 1-1.313-.069c-.465-.027-.92-.059-1.367-.095a26.814 26.814 0 0 1-1.107-.11l1.53 2.598c.31-.055.68-.105 1.108-.15a595.847 595.847 0 0 1 2.516-.26c.374-.037.66-.064.861-.082a93.255 93.255 0 0 0 2.68-.287c.984-.119 2.014-.251 3.09-.397 1.075-.146 2.174-.31 3.295-.492 1.12-.182 2.22-.374 3.295-.574v.875c0 .328.004.724.013 1.19.01.464.028.929.055 1.394.027.465.05.898.068 1.299.019.4.046.71.082.93zm-6.48-7.765l2.242-.246a23.166 23.166 0 0 0 1.299-4.252c.282-1.413.551-2.876.807-4.39l-.875-.792a52.57 52.57 0 0 1-4.8.547 67.14 67.14 0 0 1-4.525.164c-.291 0-.629-.01-1.011-.027a32.76 32.76 0 0 1-1.217-.082 64.48 64.48 0 0 0-1.272-.096 34.27 34.27 0 0 1-1.175-.096l1.421 2.488a46.35 46.35 0 0 1 2.133-.3 38.46 38.46 0 0 0 1.942-.274 36.687 36.687 0 0 1 2.925-.178c.456-.009.916-.013 1.381-.013h1.49c0 .528-.027 1.13-.082 1.804a80.682 80.682 0 0 1-.19 2.038 59.779 59.779 0 0 1-.247 1.996c-.091.647-.173 1.216-.246 1.709zm-2.55 13.053l.198-.01a64.286 64.286 0 0 1 2.79-.123 191.63 191.63 0 0 1 3.39-.055c1.185-.01 2.393 0 3.623.027 1.23.028 2.41.069 3.541.123l.383-2.488c-.766.128-1.7.237-2.803.328-1.103.091-2.228.173-3.377.246a88.507 88.507 0 0 1-3.295.15c-1.048.028-1.91.032-2.584.014-.31-.018-.501-.054-.574-.11-.073-.054-.11-.236-.11-.546v-2.68c0-.328.023-.724.069-1.19.046-.464.087-.806.123-1.025a85.323 85.323 0 0 1-1.08-.164c-.465-.073-.952-.145-1.463-.218a523.827 523.827 0 0 0-2.516-.356l-.574 1.258a18.78 18.78 0 0 1 1.326.383c.32.11.556.241.711.396.155.155.251.347.288.575.036.227.054.533.054.916v2.98c0 .42.16.798.479 1.135.319.337.852.478 1.6.424l-.2.01zm26.257-22.815c.219-.037.488-.068.807-.096l.97-.082c.328-.027.63-.05.903-.068.273-.018.474-.028.601-.028.219 0 .538-.004.957-.013.42-.01.87-.023 1.354-.041.483-.018.957-.028 1.422-.028h1.162l.52-1.859c-.42.037-.921.082-1.505.137-.583.054-1.157.1-1.722.137-.565.036-1.08.068-1.545.095-.465.028-.789.041-.971.041-.219 0-.524-.013-.916-.04-.392-.028-.798-.06-1.217-.096-.42-.037-.83-.078-1.23-.124-.401-.045-.711-.086-.93-.123l1.34 2.188zm-5.059 2.98c.237-.036.556-.073.957-.109.401-.036.807-.077 1.217-.123.41-.046.807-.082 1.19-.11.382-.027.683-.04.902-.04a108.2 108.2 0 0 1 1.518-.069l2.365-.095c.893-.037 1.836-.069 2.83-.096.993-.028 1.96-.05 2.898-.069a84.493 84.493 0 0 1 4.498.028l.684-2.133c-.73.091-1.554.169-2.475.232-.92.064-1.882.128-2.884.192-1.003.064-2.01.118-3.022.164-1.012.045-1.964.086-2.857.123-.894.036-1.7.064-2.42.082-.72.018-1.29.027-1.71.027-.254 0-.6-.013-1.038-.04a43.847 43.847 0 0 1-2.72-.26c-.43-.055-.771-.11-1.026-.165l1.093 2.461zm9.078 8.887c.894 0 1.719-.118 2.475-.355.757-.237 1.413-.56 1.969-.971.556-.41.993-.884 1.312-1.422a3.297 3.297 0 0 0 .479-1.709c0-.565-.146-1.107-.438-1.627-.291-.52-.71-.98-1.257-1.38-.547-.402-1.204-.725-1.97-.971-.765-.247-1.622-.37-2.57-.37-.875 0-1.686.105-2.433.315a6.716 6.716 0 0 0-1.969.889 4.396 4.396 0 0 0-1.326 1.367 3.373 3.373 0 0 0-.479 1.777c0 .602.164 1.171.493 1.709.328.538.77 1.012 1.326 1.422.556.41 1.212.734 1.969.97a8.051 8.051 0 0 0 2.42.356zm.055-1.832a2.952 2.952 0 0 1-2.01-.78 2.799 2.799 0 0 1-.629-.86 2.404 2.404 0 0 1-.232-1.04c0-.437.078-.824.232-1.162.155-.337.365-.624.63-.861.264-.237.569-.42.915-.547.347-.128.711-.191 1.094-.191.875 0 1.568.269 2.078.806.51.538.766 1.19.766 1.955 0 .784-.269 1.427-.807 1.928-.538.501-1.217.752-2.037.752zm-.683 9.461l2.488-.355c.11-.657.2-1.345.273-2.065.073-.72.11-1.417.11-2.092v-.492a38.67 38.67 0 0 1 2.228-.04c.666.008 1.226.013 1.682.013.601 0 1.212.009 1.832.027l1.805.055c.583.018 1.125.036 1.626.054.502.019.935.037 1.3.055l.437-2.597c-.51.072-1.067.14-1.668.205a88.17 88.17 0 0 1-1.873.177l-1.955.164c-.657.055-1.285.1-1.887.137-.438.018-1.012.041-1.723.068-.71.028-1.49.05-2.338.069-.847.018-1.731.04-2.652.068-.92.028-1.805.046-2.652.055a218.7 218.7 0 0 1-2.338.014c-.711 0-1.285-.01-1.723-.028-.82-.036-1.75-.091-2.789-.164a33.611 33.611 0 0 1-2.789-.3l1.094 2.734a794.053 794.053 0 0 1 2.242-.26 58.64 58.64 0 0 1 1.19-.123 42.683 42.683 0 0 1 2.188-.137c.464-.018.992-.032 1.585-.04.592-.01 1.235-.024 1.928-.042a80.042 80.042 0 0 1 2.105-.027v.765c0 .256.01.552.027.89.019.336.041.687.069 1.052l.082 1.107c.027.374.06.725.096 1.053zm-4.3 3.319l.198-.01a67.948 67.948 0 0 1 2.953-.123c1.167-.028 2.393-.046 3.678-.055a139.561 139.561 0 0 1 7.533.15l.41-2.488c-.51.091-1.125.169-1.846.232-.72.064-1.48.128-2.283.192-.802.064-1.627.114-2.474.15-.848.037-1.668.069-2.461.096a105.952 105.952 0 0 1-3.87.068c-.273-.018-.437-.054-.492-.11-.054-.054-.082-.236-.082-.546v-1.559c0-.346.019-.747.055-1.203.037-.455.073-.793.11-1.011a59.694 59.694 0 0 1-1.122-.164 180.36 180.36 0 0 0-2.912-.424l-1.107-.15-.52 1.257c.565.128 1.012.246 1.34.356.328.109.57.241.725.396.155.155.25.351.287.588.036.237.055.547.055.93v1.859c0 .42.15.798.45 1.135.301.337.826.478 1.573.424l-.198.01zm46.546 1.083l2.324-.328c.073-.4.141-.939.205-1.613.064-.675.118-1.385.164-2.133.046-.747.082-1.49.11-2.228.027-.739.04-1.39.04-1.955V85.458c0-.018.014-.132.041-.342.028-.21.055-.451.082-.725.028-.273.06-.546.096-.82.037-.273.073-.492.11-.656a123.437 123.437 0 0 1-3.008-.52 68.77 68.77 0 0 0-1.723-.3 50.265 50.265 0 0 0-1.477-.22l-.628 1.204c1.203.31 2.073.633 2.61.97.539.338.808.77.808 1.3v6.042c-.62.037-1.199.055-1.737.055s-1.007.01-1.408.027c-.273 0-.602-.004-.984-.013-.383-.01-.766-.028-1.149-.055s-.743-.06-1.08-.096l-.78-.082 1.231 2.434c.292-.055.657-.11 1.094-.164.438-.055.92-.11 1.45-.164.528-.055 1.08-.1 1.654-.137l1.709-.11v9.352c0 .529.004 1.094.013 1.696.01.601.028 1.194.055 1.777s.055 1.126.082 1.627c.027.501.06.898.096 1.19zm-17.883-7.574c1.586-1.094 2.99-2.233 4.21-3.418a28.7 28.7 0 0 0 3.227-3.691c.948 1.112 1.91 2.251 2.885 3.418.975 1.166 1.873 2.242 2.693 3.226l2.297-2.27a63.493 63.493 0 0 1-3.595-2.87 51.487 51.487 0 0 1-3.24-3.008 26.9 26.9 0 0 0 2.87-6.016 27.763 27.763 0 0 1-1.23-.342l-1.408-.423a208 208 0 0 0-1.422-.424c-.465-.137-.88-.25-1.244-.342l-.574 1.012c.4.146.77.319 1.107.52.337.2.551.391.643.573 0 .055.009.1.027.137a.711.711 0 0 1 .082.355c0 .092-.027.22-.082.383a21.964 21.964 0 0 1-1.149 3.118 25.577 25.577 0 0 1-1.777 3.267 26.258 26.258 0 0 1-2.365 3.145 22.078 22.078 0 0 1-2.912 2.775l.957.875zm31.472-7.191l2.243-.301c.036-.11.063-.228.082-.356.018-.127.045-.264.082-.41a219.088 219.088 0 0 1 6.152-.04c1.094.008 2.128.022 3.104.04.975.019 1.772.046 2.392.082l.438-2.242a6.725 6.725 0 0 1-.479.041c-.173.01-.369.032-.588.069.073-.566.15-1.185.233-1.86.082-.674.168-1.344.26-2.01.09-.665.173-1.308.246-1.927l.19-1.614c-1.202.11-2.515.2-3.937.274-1.421.073-2.87.118-4.347.137-1.477.018-2.935 0-4.375-.055a40.991 40.991 0 0 1-3.965-.328l-.52 1.23c.42.11.752.21.998.301.247.091.429.2.547.328.119.128.2.283.246.465.046.182.078.437.096.766l.492 4.593c.037.474.1.98.192 1.518.09.538.164.97.218 1.299zm2.57-2.707v-.274c0-.09-.008-.21-.027-.355l-.3-4.977a47.418 47.418 0 0 1 1.832-.095 164.2 164.2 0 0 1 2.351-.069c.82-.018 1.627-.023 2.42-.014a94.5 94.5 0 0 1 2.01.042l-.191 5.496-1.997.054c-.692.019-1.394.041-2.105.069-.711.027-1.408.05-2.092.068-.683.018-1.317.036-1.9.055zm3.391 12.414l2.516-.41c.036-.31.073-.67.11-1.08l.109-1.245a29.46 29.46 0 0 0 .11-2.324v-1.312c.801-.037 1.517-.05 2.146-.041.629.009 1.162.013 1.6.013.6 0 1.211.01 1.831.028l1.805.054c.583.019 1.126.037 1.627.055.501.018.934.036 1.299.055l.437-2.57a79.464 79.464 0 0 1-3.54.423c-.648.064-1.3.123-1.956.178-.656.055-1.285.091-1.887.11l-1.722.068c-.711.027-1.49.05-2.338.068-.848.018-1.732.041-2.652.068-.921.028-1.805.046-2.653.055a218.7 218.7 0 0 1-2.338.014h-.296a39.09 39.09 0 0 1-1.426-.028c-.82-.036-1.75-.095-2.79-.177a88.783 88.783 0 0 1-2.788-.26l1.093 2.707a793.632 793.632 0 0 1 2.242-.26 58.64 58.64 0 0 1 1.19-.123 29.25 29.25 0 0 1 1.08-.082c.273-.018.656-.04 1.148-.068.493-.028 1.049-.05 1.668-.069.62-.018 1.286-.04 1.996-.068.711-.027 1.422-.05 2.133-.068v1.791c.002.213.007.473.014.779.01.383.027.793.055 1.23l.082 1.313c.027.437.059.83.095 1.176zm-4.49 3.975l.197-.01a67.948 67.948 0 0 1 2.954-.123c1.166-.028 2.392-.046 3.677-.055a139.561 139.561 0 0 1 7.534.15l.41-2.488c-.51.091-1.126.169-1.846.232-.72.064-1.481.128-2.283.192-.802.064-1.627.114-2.475.15-.848.037-1.668.069-2.46.096a105.952 105.952 0 0 1-3.87.068c-.273-.018-.437-.054-.492-.11-.055-.054-.082-.236-.082-.546v-2.844c0-.328.018-.724.055-1.19.036-.464.072-.806.109-1.025a59.685 59.685 0 0 1-1.121-.164c-.474-.073-.962-.145-1.463-.218a53.544 53.544 0 0 0-1.45-.192 76.13 76.13 0 0 1-1.107-.137l-.52 1.23c.566.147 1.012.274 1.34.384.329.11.57.241.725.396.155.155.25.347.287.574.037.228.055.534.055.916v3.145c0 .42.15.798.451 1.135.301.337.825.478 1.572.424l-.198.01zM237.414 102.575l2.324-.41a41.26 41.26 0 0 0 .355-2.516 27.13 27.13 0 0 0 .165-2.816V85.458a16.136 16.136 0 0 1 .11-1.066c.036-.274.068-.547.095-.82.027-.274.06-.493.096-.657a123.433 123.433 0 0 1-3.008-.52c-.584-.11-1.158-.21-1.723-.3a50.265 50.265 0 0 0-1.476-.22l-.63 1.204c1.204.31 2.074.633 2.612.97.538.338.807.77.807 1.3v5.44a50.545 50.545 0 0 1-2.024.056c-.273 0-.592-.01-.957-.028a48.074 48.074 0 0 1-1.107-.068c-.374-.028-.73-.064-1.067-.11a28.3 28.3 0 0 1-.834-.123l1.203 2.461a8.85 8.85 0 0 1 .958-.191c.364-.055.756-.11 1.175-.164.42-.055.857-.105 1.313-.15.456-.046.902-.087 1.34-.124v5.415a60 60 0 0 0 .013 1.175c.01.456.028.916.055 1.381.027.465.06.902.096 1.313.036.41.073.724.11.943zm-17.691-3.555a39.06 39.06 0 0 0 4.347-2.46 24.903 24.903 0 0 0 4.047-3.282c.893.82 1.782 1.695 2.666 2.625.884.93 1.682 1.787 2.393 2.57l2.297-2.078a36.985 36.985 0 0 1-3.24-2.091 98.789 98.789 0 0 1-2.94-2.202 24.87 24.87 0 0 0 2.174-2.857 16.625 16.625 0 0 0 1.6-3.13l-.903-.903c-1.094.2-2.301.355-3.623.465-1.322.109-2.666.155-4.033.136-.274 0-.63-.013-1.067-.04-.437-.028-.88-.065-1.326-.11a51.566 51.566 0 0 1-2.256-.287l1.723 2.597c.292-.036.629-.082 1.012-.136.383-.055.77-.1 1.162-.137a92.07 92.07 0 0 0 1.107-.11c.347-.036.62-.054.82-.054a68.268 68.268 0 0 0 1.71-.082c.61-.037 1.18-.064 1.709-.082-.912 1.969-2.238 3.883-3.979 5.742-1.74 1.86-3.833 3.482-6.275 4.867l.875 1.04zm9.066 8.624l.203-.01a67.01 67.01 0 0 1 2.707-.123c1.003-.028 2.051-.05 3.145-.069a82.404 82.404 0 0 1 3.35.014c1.139.027 2.255.068 3.349.123l.41-2.488c-.784.127-1.686.241-2.707.341-1.02.1-2.06.183-3.117.247-1.057.063-2.074.113-3.049.15-.975.036-1.8.045-2.475.027-.255-.018-.41-.054-.464-.11-.055-.054-.082-.236-.082-.546v-3.09c0-.164.009-.346.027-.547l.055-.615c.018-.21.036-.406.054-.588.019-.182.037-.328.055-.437a18.848 18.848 0 0 0-1.121-.178c-.474-.064-.966-.132-1.477-.205-.51-.073-.998-.137-1.463-.192a76.13 76.13 0 0 1-1.107-.136l-.629 1.23c.583.146 1.04.274 1.367.383.328.11.575.242.739.396a.981.981 0 0 1 .3.575c.037.228.055.533.055.916v3.363c0 .42.155.798.465 1.135.31.337.848.478 1.613.424l-.203.01zm34.984 1.083l2.325-.328c.073-.4.14-.939.205-1.613.064-.675.118-1.385.164-2.133.045-.747.082-1.49.11-2.228.027-.739.04-1.39.04-1.955V85.44a18.094 18.094 0 0 1 .11-1.049l.109-.82c.036-.273.082-.492.137-.656a98.016 98.016 0 0 1-3.035-.52c-.584-.11-1.158-.21-1.723-.3a50.265 50.265 0 0 0-1.477-.22l-.629 1.204c1.204.31 2.074.633 2.612.97.537.338.806.77.806 1.3v17.09c0 .528.005 1.093.014 1.695.01.601.027 1.194.055 1.777.027.583.054 1.126.082 1.627.027.501.059.898.095 1.19zm-17.636-7.574c1.695-1.185 3.167-2.37 4.416-3.555a24.067 24.067 0 0 0 3.267-3.8 101.446 101.446 0 0 1 2.967 3.513c.994 1.23 1.91 2.347 2.748 3.35l2.27-2.27a51.328 51.328 0 0 1-3.65-2.994 84.631 84.631 0 0 1-3.35-3.158 21.807 21.807 0 0 0 1.49-2.707c.428-.93.825-1.932 1.19-3.008a27.763 27.763 0 0 1-1.231-.342l-1.408-.423a208 208 0 0 0-1.422-.424c-.465-.137-.88-.25-1.244-.342l-.575 1.012a7.02 7.02 0 0 1 1.122.52c.346.2.565.391.656.573 0 .055.009.1.027.137a.486.486 0 0 1 .041.137c.01.055.014.127.014.219 0 .09-.028.218-.082.382a21.964 21.964 0 0 1-1.149 3.118 25.576 25.576 0 0 1-1.777 3.267 26.258 26.258 0 0 1-2.365 3.145 22.078 22.078 0 0 1-2.912 2.775l.957.875zm42.793-2.215l2.433-.383c.055-.218.105-.528.15-.93.046-.4.087-.829.124-1.284.036-.456.068-.907.095-1.354.028-.447.041-.834.041-1.162v-1.777h2.68c.456 0 .889.004 1.299.013.41.01.752.023 1.025.041l.328-2.515a177.212 177.212 0 0 1-2.61.369 88 88 0 0 1-2.722.314v-4.812c0-.018.01-.132.028-.342.018-.21.04-.451.068-.725.027-.273.06-.546.096-.82.036-.273.073-.492.11-.656-.329-.055-.753-.128-1.272-.219-.52-.091-1.067-.191-1.64-.3-.575-.11-1.158-.21-1.75-.301a48.425 48.425 0 0 0-1.573-.22l-.465 1.204c1.203.31 2.055.633 2.557.97.5.338.752.77.752 1.3v9.98c0 .255.009.547.027.875l.055.998c.018.337.04.66.068.97.027.31.06.566.096.766zm-17.227-.765a34.14 34.14 0 0 0 4.416-2.352 25.014 25.014 0 0 0 4.17-3.281 92.216 92.216 0 0 1 2.625 2.338 66.506 66.506 0 0 0 2.598 2.283l2.297-2.05a40.079 40.079 0 0 1-3.5-1.874 40.817 40.817 0 0 1-2.817-1.873 18.307 18.307 0 0 0 2.229-2.693 15.157 15.157 0 0 0 1.6-3.076l-1.012-.93c-.53.127-1.103.241-1.723.342-.62.1-1.272.177-1.955.232a51.22 51.22 0 0 1-4.088.164c-.31 0-.684-.018-1.121-.055a81.436 81.436 0 0 1-1.34-.123 36.186 36.186 0 0 1-2.215-.287l1.668 2.57c.31-.054.661-.109 1.053-.163.392-.055.784-.105 1.176-.15.392-.046.756-.087 1.093-.124.338-.036.607-.055.807-.055.51-.018 1.098-.045 1.764-.082l.39-.02c.507-.027.965-.047 1.373-.062a14.99 14.99 0 0 1-1.681 2.967 22.16 22.16 0 0 1-2.406 2.803 24.117 24.117 0 0 1-6.249 4.457l.848 1.094zm13.89 10.199c.876 0 1.687-.123 2.434-.37a6.156 6.156 0 0 0 1.942-1.025 4.89 4.89 0 0 0 1.285-1.53 3.96 3.96 0 0 0 .465-1.888c0-.601-.119-1.162-.356-1.681a4.795 4.795 0 0 0-.984-1.408c-.42-.42-.92-.775-1.504-1.067a6.528 6.528 0 0 0-1.914-.601c.073-.31.2-.693.383-1.149l-.82-.205c-.329-.082-.661-.155-.999-.219-.337-.064-.66-.127-.97-.191-.31-.064-.565-.114-.766-.15l-.601 1.011c.419.128.715.25.888.37a.647.647 0 0 1 .287.505c-.729.091-1.399.283-2.01.574a5.965 5.965 0 0 0-1.572 1.067c-.437.42-.774.898-1.011 1.435a4.191 4.191 0 0 0-.356 1.71c0 .674.15 1.303.451 1.886.301.583.725 1.094 1.272 1.531.547.438 1.198.78 1.955 1.026.756.246 1.59.369 2.502.369zm-.027-1.805c-.419 0-.81-.077-1.175-.232a2.8 2.8 0 0 1-.957-.67 3.455 3.455 0 0 1-.657-1.012 3.231 3.231 0 0 1-.246-1.285c0-.456.082-.875.246-1.258.164-.383.383-.715.657-.998.273-.282.592-.506.957-.67a2.832 2.832 0 0 1 1.175-.246c.383 0 .752.082 1.108.246.355.164.665.388.93.67.264.283.478.615.642.998.164.383.246.802.246 1.258 0 .474-.077.902-.232 1.285-.155.383-.37.72-.643 1.012a2.837 2.837 0 0 1-.943.67 2.743 2.743 0 0 1-1.108.232zm21.684-1.695c.674-.11 1.431-.205 2.27-.287a51.635 51.635 0 0 1 2.296-.178c.347-.018.839-.046 1.477-.082a96.882 96.882 0 0 1 2.133-.096c.784-.027 1.613-.054 2.488-.082.875-.027 1.727-.054 2.557-.082.83-.027 1.604-.045 2.324-.054a127.407 127.407 0 0 1 3.664 0l1.832.027a78.687 78.687 0 0 1 2.94.096l.382-2.543c-.492.054-1.039.118-1.64.191-.602.073-1.226.141-1.873.205-.648.064-1.3.123-1.955.178-.657.055-1.286.091-1.887.11-.347.017-.789.036-1.326.054-.538.018-1.135.045-1.791.082v-6.098a95.184 95.184 0 0 1 3.226 0c1.057.019 2.042.046 2.953.082l.438-2.488c-.857.11-1.891.219-3.104.328-1.212.11-2.447.2-3.705.274-1.258.073-2.447.127-3.568.164a47.483 47.483 0 0 1-2.693.027c-.183 0-.32-.005-.41-.014a.327.327 0 0 1-.206-.082.259.259 0 0 1-.068-.191v-7.205a67.098 67.098 0 0 1 2.803-.123c1.066-.028 2.183-.041 3.35-.041 1.166 0 2.346.013 3.54.04 1.194.028 2.338.07 3.432.124l.492-2.406c-.547.09-1.271.173-2.174.246-.902.073-1.91.136-3.021.191-1.112.055-2.283.096-3.514.123-1.23.027-2.438.037-3.623.027a65.02 65.02 0 0 1-3.377-.109 27.908 27.908 0 0 1-2.775-.287l-.602 1.176c.547.127.975.25 1.285.369.31.118.547.26.711.424.164.164.27.364.315.601.045.237.068.529.068.875v6.153c0 .528.178.989.533 1.38.356.392.889.561 1.6.506.638-.036 1.38-.063 2.228-.082.848-.018 1.773-.036 2.776-.054v6.152a128.6 128.6 0 0 1-3.555.055h-1.517c-.465 0-.862-.01-1.19-.028a103.9 103.9 0 0 1-2.816-.164c-.493-.036-.971-.077-1.436-.123a34.723 34.723 0 0 1-1.299-.15l1.012 2.789zm44.816-2.27c.401-.09.798-.164 1.19-.218.392-.055.78-.128 1.162-.22.055-.309.114-.683.178-1.12.064-.438.118-.903.164-1.395.045-.492.082-.98.11-1.463.026-.483.04-.934.04-1.353V85.458c0-.018.014-.132.041-.342l.096-.725c.036-.273.077-.546.123-.82.045-.273.087-.492.123-.656a74.24 74.24 0 0 1-1.354-.219c-.537-.091-1.102-.191-1.695-.3a77.85 77.85 0 0 0-1.736-.301 50.265 50.265 0 0 0-1.477-.22 9.25 9.25 0 0 1-.3.602l-.329.602c1.222.31 2.097.638 2.625.984.529.347.793.784.793 1.313V87.7c-.4.036-.76.06-1.08.068-.319.01-.629.014-.93.014-.3 0-.601-.01-.902-.027-.3-.019-.642-.037-1.025-.055l.15-1.094c.046-.328.096-.62.15-.875-1.33.128-2.606.228-3.828.301-1.22.073-2.442.11-3.664.11a45.676 45.676 0 0 1-6.152-.41 220.47 220.47 0 0 1-.574 1.257c.437.128.788.237 1.053.328.264.091.464.196.601.315a.94.94 0 0 1 .287.45c.055.183.091.42.11.712.09 1.604.177 3.23.26 4.88.081 1.65.286 3.204.615 4.663.4-.055.783-.114 1.148-.178.365-.064.747-.123 1.149-.178.09-.455.145-.802.164-1.039 1.24-.036 2.556-.054 3.95-.054 1.395 0 2.694.036 3.897.109l.383-1.613c.237-.019.542-.05.916-.096s.766-.087 1.176-.123c.41-.037.806-.073 1.19-.11.382-.036.701-.054.956-.054v2.762c0 .328.01.724.028 1.189l.054 1.394c.019.465.041.903.069 1.313.027.41.059.725.095.943zm-12.687-7.246v-.218c0-1.204-.027-2.411-.082-3.624-.055-1.212-.1-2.42-.137-3.623a140.17 140.17 0 0 1 2.735-.177c.838-.046 1.75-.032 2.734.04-.037 1.24-.073 2.457-.11 3.651l-.109 3.65c-.802.092-1.631.16-2.488.206-.857.045-1.705.077-2.543.095zm12.441-1.886c-.875.036-1.659.045-2.351.027a22.82 22.82 0 0 1-2.16-.164c.036-.584.086-1.167.15-1.75.064-.584.132-1.185.205-1.805.583-.11 1.249-.21 1.996-.3a22.82 22.82 0 0 1 2.16-.165v4.157zm-8.394 14.136c.966 0 2.073-.032 3.322-.095a78.147 78.147 0 0 1 3.979-.096c.93 0 1.859.009 2.789.027.93.018 1.85.055 2.761.11a80.3 80.3 0 0 1 .178-1.23c.064-.42.123-.83.178-1.231-.711.109-1.536.21-2.475.3-.939.092-1.9.174-2.885.247-.984.072-1.946.127-2.884.164-.94.036-1.764.054-2.475.054-.529 0-.857-.018-.984-.054-.128-.037-.192-.237-.192-.602v-3.09c0-.146.01-.323.028-.533l.054-.629.055-.588c.018-.182.036-.328.055-.437a18.848 18.848 0 0 0-1.121-.178c-.474-.064-.967-.128-1.477-.191-.51-.064-.998-.128-1.463-.192l-1.107-.15c-.091.2-.192.405-.301.615-.11.21-.219.415-.328.615.601.146 1.066.274 1.394.383.328.11.575.242.739.396a.99.99 0 0 1 .3.588c.037.237.055.547.055.93v3.309c0 .419.137.784.41 1.093.274.31.739.465 1.395.465z"/>
            <circle cx="96" cy="96" r="96" stroke="#2F846B" stroke-width="2.4"/>
            <circle cx="288" cy="96" r="96" stroke="#2F846B" stroke-width="2.4"/>
            <path fill="#095841" fill-rule="nonzero" d="M441.521 98.173l2.434-.328c.055-.237.105-.552.15-.944a35.7 35.7 0 0 0 .124-1.271c.036-.456.068-.903.095-1.34.028-.438.041-.82.041-1.149v-.847h2.68c.456 0 .889.004 1.299.013.41.01.752.023 1.025.041l.328-2.488a177.212 177.212 0 0 1-2.611.37 88 88 0 0 1-1.436.177c-.474.055-.902.11-1.285.164l.001-5.13a57.038 57.038 0 0 1 .095-1.05c.027-.273.06-.546.096-.82.036-.273.073-.492.109-.656-.328-.055-.752-.128-1.271-.219-.52-.091-1.067-.191-1.641-.3-.574-.11-1.158-.21-1.75-.301a48.425 48.425 0 0 0-1.572-.22l-.465 1.204c1.203.31 2.055.633 2.556.97.502.338.752.77.752 1.3v9.242c0 .255.01.547.028.875l.054.998c.019.337.041.656.069.957.027.3.059.551.095.752zm-17.226.191a40.252 40.252 0 0 0 4.375-2.379 26.393 26.393 0 0 0 4.184-3.226c.911.82 1.804 1.636 2.68 2.447.874.811 1.75 1.581 2.624 2.31l2.27-1.996a39.252 39.252 0 0 1-3.541-2.01 51.891 51.891 0 0 1-2.83-1.955 17.418 17.418 0 0 0 2.255-2.693 15.157 15.157 0 0 0 1.6-3.076l-1.012-.875c-.528.11-1.102.205-1.722.287a38.626 38.626 0 0 1-4.02.314c-.693.019-1.367.028-2.023.028-.31 0-.684-.014-1.121-.041-.438-.028-.884-.06-1.34-.096a23.267 23.267 0 0 1-1.285-.137c-.401-.054-.711-.1-.93-.136l1.668 2.57c.31-.055.66-.11 1.053-.164.392-.055.784-.105 1.175-.15.392-.046.757-.082 1.094-.11.337-.027.606-.05.807-.068.51-.037 1.098-.069 1.764-.096.665-.027 1.253-.05 1.763-.068-.42.984-.98 1.96-1.681 2.926a23.66 23.66 0 0 1-5.332 5.277 25.465 25.465 0 0 1-3.323 2.023l.848 1.094zm17.008 10.117l2.406-.437c.255-.784.396-1.5.424-2.147.027-.647.04-1.235.04-1.763v-3.637c0-.31.01-.629.028-.957.018-.328.055-.72.11-1.176-.693.091-1.586.178-2.68.26-1.094.082-2.26.155-3.5.219-1.24.063-2.47.114-3.692.15a109.66 109.66 0 0 1-3.226.055c-.255 0-.56-.01-.916-.028a25.43 25.43 0 0 1-1.108-.082c-.382-.036-.756-.073-1.12-.11a17.742 17.742 0 0 1-.903-.108l1.148 2.488c.602-.091 1.199-.182 1.791-.274a19.66 19.66 0 0 1 1.764-.191c.711-.036 1.454-.082 2.229-.137.774-.054 1.558-.105 2.351-.15a69.306 69.306 0 0 1 2.365-.096 44.815 44.815 0 0 1 2.215 0v4.403c0 .218.01.496.028.833.018.338.04.684.068 1.04.027.355.055.697.082 1.025.027.328.06.602.096.82zm26.906.246l2.406-.328c.055-.4.11-.939.164-1.613.055-.675.1-1.385.137-2.133.036-.747.068-1.495.096-2.242.027-.747.04-1.395.04-1.941v-4.868h2.735c.456 0 .889.005 1.299.014.41.01.761.023 1.053.041l.218-2.57c-.346.073-.738.136-1.175.191-.438.055-.894.11-1.368.164-.474.055-.952.105-1.435.15l-1.326.124v-8.258a57.038 57.038 0 0 1 .096-1.066c.027-.274.059-.547.095-.82.037-.274.073-.493.11-.657-.329-.055-.752-.128-1.272-.219s-1.066-.191-1.64-.3c-.575-.11-1.158-.21-1.75-.301a48.425 48.425 0 0 0-1.573-.22l-.465 1.204c1.203.31 2.056.633 2.557.97.501.338.752.77.752 1.3v17.09c0 .528.004 1.093.014 1.695.009.601.027 1.194.054 1.777.028.583.055 1.126.082 1.627.028.501.06.898.096 1.19zm-16.57-6.097a31.95 31.95 0 0 0 4.416-2.885 29.573 29.573 0 0 0 3.828-3.555 26.9 26.9 0 0 0 3.062-4.129 24.045 24.045 0 0 0 2.147-4.58l-1.04-.984c-.528.11-1.134.21-1.818.3-.683.092-1.394.165-2.132.22-.739.054-1.482.1-2.229.136-.747.037-1.45.055-2.105.055-.31 0-.684-.018-1.122-.055-.437-.036-.88-.077-1.326-.123-.446-.045-.87-.091-1.271-.137-.401-.045-.72-.086-.957-.123l1.668 2.543c.291-.054.638-.11 1.039-.164.4-.054.797-.105 1.19-.15.391-.046.756-.082 1.093-.11.337-.027.606-.04.807-.04a52.907 52.907 0 0 0 2.064-.055 52.907 52.907 0 0 1 2.092-.055c-.31 1.04-.78 2.151-1.408 3.336a25.477 25.477 0 0 1-2.27 3.514 27.43 27.43 0 0 1-2.994 3.308 20.86 20.86 0 0 1-3.582 2.721l.848 1.012zm34.808 2.187c.675-.11 1.431-.205 2.27-.287a51.633 51.633 0 0 1 2.297-.178c.346-.018.838-.045 1.476-.082a96.87 96.87 0 0 1 2.133-.095c.784-.028 1.613-.055 2.488-.082l2.557-.082c.83-.028 1.604-.046 2.324-.055a127.407 127.407 0 0 1 3.664 0l1.832.027a78.694 78.694 0 0 1 2.94.096l.383-2.543a333.155 333.155 0 0 1-3.514.37c-.647.063-1.299.122-1.955.177-.656.055-1.285.1-1.887.137-.346.018-.788.036-1.326.054-.538.018-1.135.046-1.791.082v-6.562c1.148 0 2.279.004 3.39.013 1.112.01 2.133.032 3.063.069l.383-2.488c-.839.109-1.878.218-3.117.328-1.24.109-2.502.205-3.787.287-1.286.082-2.502.15-3.65.205-1.15.055-2.06.073-2.735.055-.274-.019-.456-.092-.547-.22-.091-.127-.137-.346-.137-.655V87.59c0-.347.018-.752.055-1.217.036-.465.073-.798.11-.998a22.137 22.137 0 0 0-1.177-.178c-.492-.064-1.002-.128-1.53-.191a136.69 136.69 0 0 1-1.518-.192 56.14 56.14 0 0 1-1.08-.15l-.63 1.203c.548.128.999.25 1.354.37.356.118.63.259.82.423.192.164.324.365.397.602.073.236.11.537.11.902v5.797c0 .291.036.57.109.834.073.264.191.492.355.683.164.192.374.342.63.451.254.11.564.146.929.11.638-.018 1.394-.046 2.27-.082.874-.037 1.822-.073 2.843-.11v6.59a128.585 128.585 0 0 1-3.555.055h-1.517c-.465 0-.862-.01-1.19-.027a103.898 103.898 0 0 1-2.816-.164c-.492-.037-.97-.082-1.436-.137-.464-.055-.897-.11-1.298-.164l1.011 2.816zm32.277-6.252l.208-.01a67.948 67.948 0 0 1 2.953-.123c1.166-.027 2.401-.045 3.705-.054 1.303-.01 2.611-.01 3.924 0 1.312.009 2.515.04 3.609.095l.438-2.488c-.857.11-1.887.219-3.09.328-1.203.11-2.43.2-3.678.274a139.08 139.08 0 0 1-3.541.164 46.96 46.96 0 0 1-2.68.027c-.182 0-.319-.004-.41-.014a.327.327 0 0 1-.205-.082.259.259 0 0 1-.068-.191v-3.65c.875-.037 1.85-.064 2.925-.082 1.076-.019 2.174-.032 3.295-.041 1.121-.01 2.224-.01 3.309 0 1.085.009 2.083.031 2.994.068l.41-2.461c-.656.11-1.522.21-2.597.3-1.076.092-2.224.174-3.446.247-1.221.073-2.438.137-3.65.191-1.212.055-2.292.091-3.24.11v-3.72c.802-.054 1.731-.1 2.789-.136 1.057-.036 2.164-.06 3.322-.068a95.669 95.669 0 0 1 6.932.205l.492-2.461a55.42 55.42 0 0 1-2.16.232c-.894.082-1.892.15-2.994.205a128.435 128.435 0 0 1-7.124.15 64.147 64.147 0 0 1-3.363-.109 27.887 27.887 0 0 1-2.762-.287l-.601 1.149c.547.146.975.278 1.285.396.31.119.547.26.711.424.164.164.269.365.314.602.046.237.069.528.069.875v8.039c0 .547.178 1.011.533 1.394.356.383.889.547 1.6.492l-.208.01zm-5.671 6.307c.674-.11 1.43-.205 2.27-.287a51.635 51.635 0 0 1 2.296-.178 352.4 352.4 0 0 0 1.477-.082 96.882 96.882 0 0 1 2.133-.096c.783-.027 1.613-.054 2.488-.082.875-.027 1.727-.054 2.556-.082.83-.027 1.605-.045 2.325-.054a127.407 127.407 0 0 1 3.664 0l1.832.027a78.687 78.687 0 0 1 2.94.096l.382-2.543c-.492.054-1.039.118-1.64.191-.602.073-1.227.141-1.874.205s-1.298.123-1.955.178c-.656.055-1.285.091-1.886.11-.438.017-.985.04-1.641.068-.656.027-1.372.05-2.147.068-.774.018-1.576.041-2.406.068-.83.028-1.636.046-2.42.055-.784.01-1.508.014-2.174.014a43.207 43.207 0 0 1-3.035-.096c-.483-.027-.97-.06-1.463-.096a60.6 60.6 0 0 1-1.435-.123 34.723 34.723 0 0 1-1.299-.15l1.012 2.789z"/>
            <circle cx="480" cy="96" r="96" stroke="#2F846B" stroke-width="2.4"/>
            <path fill="#095841" fill-rule="nonzero" d="M621.38 94.126a9.732 9.732 0 0 0 2.79-.383c.857-.255 1.59-.615 2.201-1.08a5.217 5.217 0 0 0 1.436-1.64c.346-.63.52-1.318.52-2.065a3.97 3.97 0 0 0-.397-1.75 5.195 5.195 0 0 0-1.094-1.49 6.26 6.26 0 0 0-1.682-1.135 8.068 8.068 0 0 0-2.16-.656c.073-.201.141-.397.205-.588.064-.192.123-.388.178-.588a30.92 30.92 0 0 1-.875-.15 53.227 53.227 0 0 1-1.053-.206 69.07 69.07 0 0 0-1.873-.355l-.52 1.039c.383.11.67.219.862.328.191.11.324.264.396.465a7.839 7.839 0 0 0-2.27.588c-.692.3-1.289.679-1.79 1.135-.501.455-.893.97-1.176 1.544a4.066 4.066 0 0 0-.424 1.819 4.3 4.3 0 0 0 .506 2.064 5.125 5.125 0 0 0 1.408 1.64c.602.466 1.313.826 2.133 1.081.82.255 1.714.383 2.68.383zm.138-1.778c-.493 0-.957-.082-1.395-.246a3.24 3.24 0 0 1-1.135-.71 3.481 3.481 0 0 1-1.053-2.543c0-.475.096-.926.288-1.354a3.59 3.59 0 0 1 1.927-1.873 3.52 3.52 0 0 1 1.368-.274c.455 0 .902.092 1.34.274.437.182.824.433 1.162.752.337.319.606.693.806 1.12.2.43.301.88.301 1.354 0 .53-.1 1.008-.3 1.436-.201.428-.466.798-.794 1.107-.328.31-.71.547-1.148.711a3.862 3.862 0 0 1-1.367.246zm-.957 16.325l2.46-.41c.055-.383.114-.83.178-1.34.064-.51.114-1.04.15-1.586.037-.547.069-1.099.096-1.655.028-.556.041-1.08.041-1.572V97.9c.82-.055 1.554-.083 2.202-.083h1.681c.602 0 1.212.01 1.832.028.62.018 1.222.031 1.805.04a78.867 78.867 0 0 1 2.926.096l.382-2.57a40.21 40.21 0 0 1-1.64.205c-.602.064-1.226.128-1.873.191-.647.064-1.299.123-1.955.178-.657.055-1.285.091-1.887.11-.438.018-.998.036-1.682.054-.683.018-1.435.041-2.256.069-.82.027-1.672.05-2.556.068l-.657.014-1.9.04c-.82.019-1.577.028-2.27.028h-1.695a47.39 47.39 0 0 1-1.298-.082 96.672 96.672 0 0 1-1.477-.123 96.673 96.673 0 0 0-1.477-.123 22.28 22.28 0 0 1-1.326-.137l1.094 2.707 1.039-.123c.383-.045.77-.086 1.162-.123l1.19-.11c.4-.036.774-.063 1.12-.081.274-.019.634-.041 1.08-.069.447-.027.953-.05 1.518-.068.565-.018 1.176-.037 1.832-.055.657-.018 1.331-.027 2.024-.027v6.467c0 .52.004 1.043.014 1.572.009.529.022 1.03.04 1.504.019.474.046.866.083 1.176zm32.62-6.535l2.462-.383c.054-.292.104-.661.15-1.108.046-.446.087-.916.123-1.408.036-.492.068-.984.096-1.476.027-.493.04-.94.04-1.34v-2.489h5.06l.218-2.488c-.328.073-.715.146-1.162.219-.447.073-.907.141-1.38.205-.475.064-.949.118-1.423.164-.474.046-.911.087-1.312.123v-6.7a16.137 16.137 0 0 1 .11-1.066l.108-.82c.037-.273.083-.492.137-.656-.346-.055-.78-.128-1.299-.219-.52-.091-1.07-.191-1.654-.3a58.503 58.503 0 0 0-3.281-.52l-.547 1.203c1.203.31 2.06.633 2.57.97.51.338.766.77.766 1.3v11.976c0 .346.009.752.027 1.217l.055 1.394c.018.465.04.894.068 1.285.028.392.05.698.069.917zM640.358 86.14c.237-.036.51-.068.82-.095l.93-.082c.31-.028.593-.05.848-.069.255-.018.447-.027.574-.027.237 0 .534-.005.889-.014l1.121-.027c.392-.01.775-.014 1.149-.014h.998l.52-2.023c-.402.055-.849.11-1.34.164-.493.055-.976.105-1.45.15-.474.046-.916.082-1.326.11-.41.027-.725.04-.944.04-.2 0-.487-.013-.86-.04a38.408 38.408 0 0 1-2.365-.26 9.393 9.393 0 0 1-.903-.164l1.34 2.351zm-3.964 3.418c.218-.036.51-.077.875-.123.364-.045.742-.086 1.134-.123.392-.036.775-.073 1.149-.11.373-.036.679-.054.916-.054.383-.018.87-.036 1.463-.054.592-.019 1.235-.041 1.927-.069.693-.027 1.418-.05 2.174-.068.757-.018 1.49-.032 2.201-.041.711-.01 1.372-.018 1.983-.028.61-.009 1.116-.004 1.517.014l.41-2.324c-.947.164-2.023.3-3.226.41-1.203.11-2.397.2-3.582.274a95.597 95.597 0 0 1-3.322.15c-1.03.027-1.846.05-2.448.068-.237 0-.556-.018-.957-.054a36.186 36.186 0 0 1-2.475-.314 11.848 11.848 0 0 1-.915-.179l1.176 2.625zm7.546 9.543c.839 0 1.623-.123 2.352-.369a6.023 6.023 0 0 0 1.887-1.012c.528-.428.943-.92 1.244-1.476.3-.556.451-1.135.451-1.736a3.61 3.61 0 0 0-.437-1.723 4.854 4.854 0 0 0-1.217-1.463c-.52-.428-1.144-.766-1.873-1.012-.73-.246-1.532-.369-2.407-.369-.82 0-1.59.114-2.31.342a6.128 6.128 0 0 0-1.873.943 4.551 4.551 0 0 0-1.258 1.45 3.75 3.75 0 0 0-.465 1.832c0 .601.15 1.18.451 1.736.301.556.716 1.044 1.245 1.463.528.42 1.153.756 1.873 1.012.72.255 1.499.382 2.337.382zm.028-1.75c-.365 0-.711-.077-1.04-.232a2.799 2.799 0 0 1-.86-.629 3.046 3.046 0 0 1-.807-2.092c0-.437.073-.838.219-1.203.145-.364.341-.679.587-.943.246-.265.534-.47.862-.615a2.53 2.53 0 0 1 1.039-.22c.346 0 .683.083 1.012.247a3.063 3.063 0 0 1 1.476 1.613c.146.365.219.738.219 1.121 0 .438-.078.834-.233 1.19-.155.355-.36.665-.615.93-.255.264-.542.469-.861.615a2.374 2.374 0 0 1-.998.218zm.804 10.287l.208-.005 2.72-.123c1.012-.046 2.074-.082 3.186-.11 1.112-.027 2.251-.04 3.418-.04 1.166 0 2.315.017 3.445.054l.383-2.434c-.766.11-1.668.214-2.707.315-1.04.1-2.092.196-3.158.287-1.067.091-2.097.16-3.09.205-.994.045-1.828.068-2.502.068-.31-.018-.492-.054-.547-.11-.055-.054-.082-.236-.082-.546v-2.57c0-.164.009-.351.027-.56l.055-.63c.018-.21.036-.405.055-.588.018-.182.036-.328.054-.437-.291-.055-.67-.114-1.134-.178-.465-.064-.948-.127-1.45-.191-.501-.064-.98-.128-1.435-.192a15.945 15.945 0 0 1-1.067-.177l-.601 1.257c.565.146 1.002.274 1.312.383.31.11.543.242.698.397.155.155.25.346.287.574.036.228.054.533.054.916v2.871c0 .42.169.793.506 1.121.337.328.862.474 1.573.438l-.208.005zm34.825 1.088l2.406-.328c.055-.4.11-.939.164-1.613.055-.675.1-1.385.137-2.133a92.706 92.706 0 0 0 .11-4.183V94.7h4.06c.41 0 .752.01 1.025.027l.328-2.543c-.364.073-.775.142-1.23.205-.456.064-.925.128-1.409.192-.483.064-.966.118-1.449.164-.483.045-.925.096-1.326.15v-7.454l.027-.325c.019-.21.041-.451.069-.725.027-.273.06-.546.096-.82.036-.273.072-.492.109-.656-.328-.055-.752-.128-1.272-.219s-1.066-.191-1.64-.3c-.574-.11-1.158-.21-1.75-.301a48.425 48.425 0 0 0-1.572-.22l-.465 1.204c1.203.31 2.055.633 2.556.97.502.338.752.77.752 1.3v10.226c-.857.273-1.804.551-2.843.834-1.04.283-2.07.538-3.09.766-1.021.227-1.974.423-2.858.588-.884.164-1.59.264-2.119.3-.091.019-.15-.027-.178-.136-.027-.11-.04-.301-.04-.575v-7.656c0-.036.008-.155.027-.355.018-.2.04-.433.068-.698.027-.264.06-.528.096-.793.036-.264.073-.478.11-.642l-1.259-.192a49.465 49.465 0 0 0-3.048-.369c-.52-.045-.999-.077-1.436-.095l-.438 1.203c.602.11 1.08.218 1.436.328.355.11.629.232.82.369a.998.998 0 0 1 .383.478c.064.183.096.41.096.684v8.313c0 .875.232 1.522.697 1.941.465.42 1.226.547 2.283.383.802-.11 1.686-.283 2.653-.52a63.508 63.508 0 0 0 2.966-.806c1.012-.301 2.006-.62 2.98-.957.976-.338 1.874-.661 2.694-.971v5.441c0 .529.01 1.094.028 1.696.018.601.04 1.194.068 1.777.027.583.055 1.126.082 1.627.027.501.06.898.096 1.19zm29.011-3.035c.493 0 1.04-.04 1.641-.123a19.084 19.084 0 0 0 1.777-.328 14.07 14.07 0 0 0 1.655-.492c.52-.192.943-.397 1.271-.615l.766-4.813h-1.668c-.274 1.495-.82 2.689-1.64 3.582-.821.893-1.933 1.34-3.337 1.34a7.734 7.734 0 0 1-3.213-.684 7.921 7.921 0 0 1-2.652-1.941c-.756-.839-1.353-1.85-1.791-3.035-.437-1.185-.656-2.516-.656-3.992 0-1.35.2-2.575.601-3.678.401-1.103.957-2.042 1.668-2.817a7.546 7.546 0 0 1 2.502-1.804 7.508 7.508 0 0 1 3.104-.643c1.586 0 2.825.365 3.719 1.094.893.73 1.467 1.941 1.722 3.637h1.559l-.301-4.621c-1.02-.42-2.11-.784-3.268-1.094a13.634 13.634 0 0 0-3.54-.465c-1.404 0-2.767.26-4.088.78a11.317 11.317 0 0 0-3.514 2.173 10.773 10.773 0 0 0-2.461 3.322c-.62 1.286-.93 2.685-.93 4.198 0 1.64.27 3.14.807 4.498.538 1.358 1.294 2.52 2.27 3.486.975.966 2.141 1.714 3.5 2.242 1.357.529 2.857.793 4.497.793zm19.196 0l6.508-17.254c.2-.565.373-1.016.52-1.353.145-.337.309-.593.491-.766.183-.173.401-.287.657-.342a4.84 4.84 0 0 1 .984-.082v-1.312c-.328.036-.757.055-1.285.055h-1.696c-.601 0-1.194-.005-1.777-.014a55.174 55.174 0 0 1-1.504-.041v1.34c.547.018.97.045 1.272.082.3.036.501.123.601.26.1.136.114.35.041.642-.073.292-.2.693-.383 1.203l-4.703 12.797-4.648-12.496c-.2-.565-.342-1.007-.424-1.326-.082-.32-.073-.56.027-.725.1-.164.297-.273.588-.328.292-.055.711-.091 1.258-.11v-1.34c-.42.019-.989.033-1.709.042a178.465 178.465 0 0 1-4.484 0 22.58 22.58 0 0 1-1.655-.069v1.34c.51 0 .926.032 1.245.096.319.064.592.196.82.397.228.2.433.483.615.847.182.365.383.848.602 1.45l6.59 17.007h1.449z"/>
            <circle cx="672" cy="96" r="96" stroke="#2F846B" stroke-width="2.4"/>
        </g>
        <path fill="#1C745A" d="M211.035 18.674c-1.675.28-3.349.566-5.024.838-2.139.35-4.282.673-6.415 1.042-2.214.382-3.044 2.006-3.43 3.972-.612 3.123-1.193 6.252-1.8 9.376-.102.525-.264 1.037-.4 1.553l-.585.039c-.595-2.544-1.197-5.09-1.786-7.635-.326-1.409-.564-2.84-.963-4.226-.508-1.76-1.68-2.767-3.575-2.98-3.301-.367-6.594-.824-9.886-1.27-.393-.053-.763-.272-1.171-.84 2.068-.37 4.133-.758 6.206-1.103 1.64-.275 3.294-.467 4.934-.75 2.13-.365 3.22-1.698 3.548-3.81.569-3.644 1.205-7.278 1.83-10.912.114-.664.316-1.312.476-1.968.19.004.38.006.57.008.17.863.345 1.726.51 2.59.63 3.268 1.25 6.538 1.886 9.804.544 2.792 1.54 3.823 4.41 4.246 3.145.462 6.312.774 9.468 1.164.394.049.778.178 1.17.27.008.198.018.396.027.592M596.235 209.474c-1.675.28-3.349.566-5.024.838-2.139.35-4.282.673-6.415 1.042-2.214.382-3.044 2.006-3.43 3.972-.612 3.123-1.193 6.252-1.8 9.376-.102.525-.264 1.037-.4 1.553l-.585.039c-.595-2.544-1.197-5.09-1.786-7.635-.326-1.409-.564-2.84-.963-4.226-.508-1.76-1.68-2.767-3.575-2.98-3.301-.367-6.594-.824-9.886-1.27-.393-.053-.763-.272-1.171-.84 2.068-.37 4.133-.758 6.206-1.103 1.64-.275 3.294-.467 4.934-.75 2.13-.365 3.22-1.698 3.548-3.81.569-3.644 1.205-7.278 1.83-10.912.114-.664.316-1.312.476-1.968.19.004.38.006.57.008.17.863.345 1.726.51 2.59.63 3.268 1.25 6.538 1.886 9.804.544 2.792 1.54 3.823 4.41 4.246 3.145.462 6.312.774 9.468 1.164.394.049.778.178 1.17.27.008.198.018.396.027.592"/>
    </g>
</svg>
