<svg xmlns="http://www.w3.org/2000/svg" width="34" height="34" viewBox="0 0 34 34">
    <path fill="#FFF" fill-rule="evenodd" d="M17 0c9.387 0 17 7.613 17 17 0 9.39-7.613 17-17 17-9.39 0-17-7.61-17-17C0 7.613 7.61 0 17 0zm.201 7c-2.772 0-3.118.012-4.208.06-3.7.17-5.762 2.23-5.932 5.936C7.012 14.086 7 14.432 7 17.201c0 2.772.012 3.121.058 4.208.173 3.707 2.228 5.762 5.935 5.932.934.044 1.322.06 3.16.063h2.096c1.835-.003 2.223-.019 3.157-.063 3.704-.17 5.765-2.222 5.935-5.932.04-.932.054-1.321.057-3.16v-2.096c-.003-1.835-.018-2.222-.057-3.154-.167-3.704-2.228-5.765-5.932-5.938C20.316 7.012 19.969 7 17.2 7zm4.12 1.9c2.769.125 4.056 1.44 4.183 4.181.047 1.036.06 1.376.061 3.84v.283c0 2.726-.012 3.045-.06 4.123-.128 2.741-1.412 4.056-4.184 4.18-1.037.047-1.373.057-3.837.058H17.2c-2.723 0-3.048-.009-4.123-.058-2.772-.124-4.056-1.445-4.18-4.18-.048-1-.06-1.35-.061-3.577v-1.096c.001-2.224.013-2.575.06-3.573.125-2.741 1.415-4.056 4.181-4.183.998-.046 1.35-.057 3.575-.058h1.096c2.225.001 2.574.013 3.572.06zm-4.12 3.064a5.238 5.238 0 1 0-.003 10.477 5.238 5.238 0 0 0 .003-10.477zm0 1.837a3.4 3.4 0 1 1 0 6.8 3.4 3.4 0 0 1 0-6.8zm5.444-3.267a1.224 1.224 0 1 0 1.224 1.224c-.001-.675-.547-1.224-1.224-1.224z"/>
</svg>
