<?xml version="1.0" encoding="UTF-8"?>
<svg width="384px" height="227px" viewBox="0 0 384 227" version="1.1" xmlns="http://www.w3.org/2000/svg" xmlns:xlink="http://www.w3.org/1999/xlink">
    <!-- Generator: Sketch 61.1 (89650) - https://sketch.com -->
    <title>link_group1</title>
    <desc>Created with Sketch.</desc>
    <g id="Page-1" stroke="none" stroke-width="1" fill="none" fill-rule="evenodd">
        <g id="footer" transform="translate(-317.000000, -482.000000)">
            <g id="Group-9" transform="translate(317.000000, 482.000001)">
                <g id="Group-4">
                    <g id="Group" transform="translate(0.000000, 18.000000)" stroke="#2F846B" stroke-width="2.4000001">
                        <circle id="Oval" cx="96.0000038" cy="96.0000038" r="94.8000038"></circle>
                    </g>
                    <g id="Group-8" transform="translate(192.000000, 18.000000)">
                        <path d="M45.4140625,107.575002 L47.7382812,107.164846 C47.7929688,106.85495 47.8522135,106.481252 47.9160156,106.043752 C47.9798177,105.606252 48.0390625,105.141408 48.09375,104.649221 C48.1484375,104.157033 48.1894531,103.669403 48.2167969,103.18633 C48.2441406,102.703257 48.2578125,102.252086 48.2578125,101.832815 L48.2578125,101.832815 L48.2578125,90.4578147 C48.2578125,90.4395855 48.2669271,90.3256532 48.2851562,90.1160178 C48.3033854,89.9063824 48.3307292,89.6648459 48.3671875,89.3914084 C48.4036458,89.1179709 48.4355469,88.8445334 48.4628906,88.5710959 C48.4902344,88.2976584 48.5221354,88.0789084 48.5585938,87.9148459 C48.2122396,87.8601584 47.7701823,87.7872418 47.2324219,87.6960959 C46.6946615,87.6049501 46.1341146,87.5046897 45.5507812,87.3953147 C44.9674479,87.2859397 44.3932292,87.1856793 43.828125,87.0945334 C43.2630208,87.0033876 42.7708333,86.9304709 42.3515625,86.8757834 L42.3515625,86.8757834 L41.7226562,88.0789084 C42.9257812,88.3888043 43.796224,88.712372 44.3339844,89.0496116 C44.8717448,89.3868512 45.140625,89.8197939 45.140625,90.3484397 L45.140625,90.3484397 L45.140625,95.7898459 C44.7578125,95.8080751 44.3886719,95.821747 44.0332031,95.8308616 C43.6777344,95.8399762 43.3723958,95.8445334 43.1171875,95.8445334 C42.84375,95.8445334 42.5247396,95.8354189 42.1601562,95.8171897 C41.7955729,95.7989605 41.4264323,95.7761741 41.0527344,95.7488303 C40.6790365,95.7214866 40.3235677,95.6850282 39.9863281,95.6394553 C39.6490885,95.5938824 39.3710938,95.5528668 39.1523438,95.5164084 L39.1523438,95.5164084 L40.3554688,97.9773459 C40.6289062,97.9044293 40.9479167,97.8406272 41.3125,97.7859397 C41.6770833,97.7312522 42.0690104,97.6765647 42.4882812,97.6218772 C42.9075521,97.5671897 43.3450521,97.5170595 43.8007812,97.4714866 C44.2565104,97.4259137 44.703125,97.384898 45.140625,97.3484397 L45.140625,97.3484397 L45.140625,102.762502 C45.140625,103.090627 45.1451823,103.482554 45.1542969,103.938283 C45.1634115,104.394013 45.1816406,104.854299 45.2089844,105.319143 C45.2363281,105.783987 45.2682292,106.221487 45.3046875,106.631643 C45.3411458,107.041799 45.3776042,107.356252 45.4140625,107.575002 L45.4140625,107.575002 Z M27.7226562,104.020315 C29.1627604,103.327606 30.6119792,102.507294 32.0703125,101.559377 C33.5286458,100.611461 34.8776042,99.5177105 36.1171875,98.2781272 C37.0104167,99.0984397 37.8990885,99.9734397 38.7832031,100.903127 C39.6673177,101.832815 40.4648438,102.689586 41.1757812,103.47344 L41.1757812,103.47344 L43.4726562,101.395315 C42.3606771,100.757294 41.280599,100.060028 40.2324219,99.3035178 C39.1842448,98.5470074 38.2044271,97.8132834 37.2929688,97.1023459 C38.0950521,96.1908876 38.8196615,95.2384137 39.4667969,94.2449241 C40.1139323,93.2514345 40.6471354,92.2078147 41.0664062,91.1140647 L41.0664062,91.1140647 L40.1640625,90.2117209 C39.0703125,90.4122418 37.8626302,90.5671897 36.5410156,90.6765647 C35.219401,90.7859397 33.875,90.8315126 32.5078125,90.8132834 C32.234375,90.8132834 31.8789062,90.7996116 31.4414062,90.7722678 C31.0039062,90.7449241 30.561849,90.7084657 30.1152344,90.6628928 C29.6686198,90.6173199 29.2402344,90.5671897 28.8300781,90.5125022 C28.4199219,90.4578147 28.0963542,90.4122418 27.859375,90.3757834 L27.859375,90.3757834 L29.5820312,92.9734397 C29.8736979,92.9369814 30.2109375,92.8914084 30.59375,92.8367209 C30.9765625,92.7820334 31.3639323,92.7364605 31.7558594,92.7000022 C32.1477865,92.6635439 32.5169271,92.6270855 32.8632812,92.5906272 C33.2096354,92.5541689 33.4830729,92.5359397 33.6835938,92.5359397 C34.2122396,92.5177105 34.781901,92.4903668 35.3925781,92.4539084 C36.0032552,92.4174501 36.5729167,92.3901064 37.1015625,92.3718772 C36.1901042,94.3406272 34.8639323,96.2546897 33.1230469,98.1140647 C31.3821615,99.9734397 29.2903646,101.595836 26.8476562,102.981252 L26.8476562,102.981252 L27.7226562,104.020315 Z M36.7890302,112.643652 L36.9921875,112.633596 C37.7942708,112.578908 38.6966146,112.537893 39.6992188,112.510549 C40.7018229,112.483205 41.75,112.460419 42.84375,112.44219 C43.9375,112.423961 45.0540365,112.428518 46.1933594,112.455862 C47.3326823,112.483205 48.4492188,112.524221 49.5429688,112.578908 L49.5429688,112.578908 L49.953125,110.090627 C49.1692708,110.218231 48.2669271,110.332164 47.2460938,110.432424 C46.2252604,110.532684 45.1861979,110.614716 44.1289062,110.678518 C43.0716146,110.74232 42.0553385,110.79245 41.0800781,110.828908 C40.1048177,110.865367 39.2799479,110.874481 38.6054688,110.856252 C38.3502604,110.838023 38.1953125,110.801565 38.140625,110.746877 C38.0859375,110.69219 38.0585938,110.509898 38.0585938,110.200002 L38.0585938,110.200002 L38.0585938,107.110158 C38.0585938,106.946096 38.0677083,106.763804 38.0859375,106.563283 C38.1041667,106.362763 38.1223958,106.157684 38.140625,105.948049 C38.1588542,105.738414 38.1770833,105.54245 38.1953125,105.360158 C38.2135417,105.177867 38.2317708,105.032033 38.25,104.922658 C37.9765625,104.867971 37.6028646,104.808726 37.1289062,104.744924 C36.6549479,104.681122 36.1627604,104.612763 35.6523438,104.539846 C35.1419271,104.466929 34.6542969,104.403127 34.1894531,104.34844 C33.7246094,104.293752 33.3554688,104.248179 33.0820312,104.211721 L33.0820312,104.211721 L32.453125,105.44219 C33.0364583,105.588023 33.4921875,105.715627 33.8203125,105.825002 C34.1484375,105.934377 34.3945312,106.066539 34.5585938,106.221487 C34.7226562,106.376434 34.8229167,106.567841 34.859375,106.795705 C34.8958333,107.02357 34.9140625,107.328908 34.9140625,107.711721 L34.9140625,107.711721 L34.9140625,111.075002 C34.9140625,111.494273 35.0690104,111.872528 35.3789062,112.209768 C35.6888021,112.547007 36.2265625,112.688283 36.9921875,112.633596 L36.7890302,112.643652 Z M71.7734375,113.727346 L74.0976562,113.399221 C74.1705729,112.998179 74.2389323,112.460419 74.3027344,111.78594 C74.3665365,111.111461 74.421224,110.400523 74.4667969,109.653127 C74.5123698,108.905731 74.5488281,108.162893 74.5761719,107.424612 C74.6035156,106.68633 74.6171875,106.034638 74.6171875,105.469533 L74.6171875,105.469533 L74.617947,90.4407248 C74.6204789,90.3989497 74.6293403,90.290714 74.6445312,90.1160178 C74.6627604,89.9063824 74.6901042,89.6648459 74.7265625,89.3914084 C74.7630208,89.1179709 74.7994792,88.8445334 74.8359375,88.5710959 C74.8723958,88.2976584 74.9179688,88.0789084 74.9726562,87.9148459 C74.6080729,87.8601584 74.156901,87.7872418 73.6191406,87.6960959 C73.0813802,87.6049501 72.5208333,87.5046897 71.9375,87.3953147 C71.3541667,87.2859397 70.7799479,87.1856793 70.2148438,87.0945334 C69.6497396,87.0033876 69.1575521,86.9304709 68.7382812,86.8757834 L68.7382812,86.8757834 L68.109375,88.0789084 C69.3125,88.3888043 70.1829427,88.712372 70.7207031,89.0496116 C71.2584635,89.3868512 71.5273438,89.8197939 71.5273438,90.3484397 L71.5273438,90.3484397 L71.5273438,107.438283 C71.5273438,107.966929 71.531901,108.532033 71.5410156,109.133596 C71.5501302,109.735158 71.5683594,110.327606 71.5957031,110.91094 C71.6230469,111.494273 71.6503906,112.036591 71.6777344,112.537893 C71.7050781,113.039195 71.7369792,113.435679 71.7734375,113.727346 L71.7734375,113.727346 Z M54.1367188,106.153127 C55.8320312,104.968231 57.3040365,103.783336 58.5527344,102.59844 C59.8014323,101.413544 60.890625,100.146617 61.8203125,98.7976584 C62.8046875,99.9096376 63.7936198,101.080862 64.7871094,102.31133 C65.780599,103.541799 66.6966146,104.658336 67.5351562,105.66094 L67.5351562,105.66094 L69.8046875,103.391408 C68.6015625,102.498179 67.3847656,101.500132 66.1542969,100.397268 C64.9238281,99.2944032 63.8072917,98.2416689 62.8046875,97.2390647 C63.3697917,96.3640647 63.8665365,95.4617209 64.2949219,94.5320334 C64.7233073,93.6023459 65.1197917,92.5997418 65.484375,91.5242209 C65.1197917,91.4330751 64.7096354,91.3191428 64.2539062,91.1824241 C63.7981771,91.0457053 63.328776,90.9044293 62.8457031,90.7585959 C62.3626302,90.6127626 61.8886719,90.4714866 61.4238281,90.3347678 C60.9589844,90.1980491 60.5442708,90.0841168 60.1796875,89.9929709 L60.1796875,89.9929709 L59.6054688,91.0046897 C60.0065104,91.150523 60.3802083,91.3237001 60.7265625,91.5242209 C61.0729167,91.7247418 61.2916667,91.916148 61.3828125,92.0984397 C61.3828125,92.1531272 61.3919271,92.1987001 61.4101562,92.2351584 C61.4283854,92.2716168 61.4420573,92.3171897 61.4511719,92.3718772 C61.4602865,92.4265647 61.4648438,92.4994814 61.4648438,92.5906272 C61.4648438,92.681773 61.4375,92.8093772 61.3828125,92.9734397 C61.109375,93.9578147 60.7265625,94.9968772 60.234375,96.0906272 C59.7421875,97.1843772 59.1497396,98.2735699 58.4570312,99.3582053 C57.7643229,100.442841 56.9759115,101.491018 56.0917969,102.502737 C55.2076823,103.514455 54.2369792,104.439586 53.1796875,105.278127 L53.1796875,105.278127 L54.1367188,106.153127 Z M96.9296875,103.938283 L99.3632812,103.555471 C99.4179688,103.336721 99.468099,103.026825 99.5136719,102.625783 C99.5592448,102.224742 99.6002604,101.796356 99.6367188,101.340627 C99.6731771,100.884898 99.7050781,100.433726 99.7324219,99.9871116 C99.7597656,99.540497 99.7734375,99.1531272 99.7734375,98.8250022 L99.7734375,98.8250022 L99.7734375,97.0476584 L99.7734375,97.0476584 L102.453125,97.0476584 C102.908854,97.0476584 103.341797,97.0522157 103.751953,97.0613303 C104.162109,97.0704449 104.503906,97.0841168 104.777344,97.1023459 L104.777344,97.1023459 L105.105469,94.5867209 C104.740885,94.6414084 104.335286,94.7006532 103.888672,94.7644553 C103.442057,94.8282574 102.977214,94.8920595 102.494141,94.9558616 C102.011068,95.0196637 101.532552,95.0789084 101.058594,95.1335959 C100.584635,95.1882834 100.15625,95.2338564 99.7734375,95.2703147 L99.7734375,95.2703147 L99.7734375,90.4578147 C99.7734375,90.4395855 99.7825521,90.3256532 99.8007812,90.1160178 C99.8190104,89.9063824 99.8417969,89.6648459 99.8691406,89.3914084 C99.8964844,89.1179709 99.9283854,88.8445334 99.9648438,88.5710959 C100.001302,88.2976584 100.03776,88.0789084 100.074219,87.9148459 C99.7460938,87.8601584 99.3222656,87.7872418 98.8027344,87.6960959 C98.2832031,87.6049501 97.7363281,87.5046897 97.1621094,87.3953147 C96.5878906,87.2859397 96.0045573,87.1856793 95.4121094,87.0945334 C94.8196615,87.0033876 94.2955729,86.9304709 93.8398438,86.8757834 L93.8398438,86.8757834 L93.375,88.0789084 C94.578125,88.3888043 95.4303385,88.712372 95.9316406,89.0496116 C96.4329427,89.3868512 96.6835938,89.8197939 96.6835938,90.3484397 L96.6835938,90.3484397 L96.6835938,100.328908 C96.6835938,100.584117 96.6927083,100.875783 96.7109375,101.203908 C96.7291667,101.532033 96.7473958,101.864716 96.765625,102.201955 C96.7838542,102.539195 96.8066406,102.862763 96.8339844,103.172658 C96.8613281,103.482554 96.8932292,103.737763 96.9296875,103.938283 L96.9296875,103.938283 Z M79.703125,103.172658 C81.1614583,102.534638 82.6334635,101.750783 84.1191406,100.821096 C85.6048177,99.8914084 86.9947917,98.7976584 88.2890625,97.5398459 C89.1822917,98.3054709 90.0572917,99.0847678 90.9140625,99.8777366 C91.7708333,100.670705 92.6367188,101.431773 93.5117188,102.16094 L93.5117188,102.16094 L95.8085938,100.110158 C94.4778646,99.4721376 93.3111979,98.8477887 92.3085938,98.2371116 C91.3059896,97.6264345 90.3671875,97.0020855 89.4921875,96.3640647 C90.3307292,95.525523 91.0735677,94.6277366 91.7207031,93.6707053 C92.3678385,92.7136741 92.9010417,91.6882834 93.3203125,90.5945334 L93.3203125,90.5945334 L92.3085938,89.6648459 C91.7799479,89.7924501 91.2057292,89.9063824 90.5859375,90.0066428 C89.9661458,90.1069032 89.3144531,90.1843772 88.6308594,90.2390647 C87.9472656,90.2937522 87.2591146,90.3347678 86.5664062,90.3621116 C85.8736979,90.3894553 85.1992188,90.4031272 84.5429688,90.4031272 C84.2330729,90.4031272 83.859375,90.384898 83.421875,90.3484397 C82.984375,90.3119814 82.5377604,90.2709657 82.0820312,90.2253928 C81.6263021,90.1798199 81.1979167,90.1296897 80.796875,90.0750022 C80.3958333,90.0203147 80.0859375,89.9747418 79.8671875,89.9382834 L79.8671875,89.9382834 L81.5351562,92.5085959 C81.8450521,92.4539084 82.1959635,92.3992209 82.5878906,92.3445334 C82.9798177,92.2898459 83.3717448,92.2397157 83.7636719,92.1941428 C84.155599,92.1485699 84.5201823,92.1075543 84.8574219,92.0710959 C85.1946615,92.0346376 85.4635417,92.0164084 85.6640625,92.0164084 C86.1744792,91.9981793 86.7623698,91.9708355 87.4277344,91.9343772 L87.8176563,91.9135959 C88.3251562,91.8873459 88.7830729,91.8669293 89.1914062,91.8523459 C88.7721354,92.8549501 88.2115885,93.8438824 87.5097656,94.8191428 C86.8079427,95.7944032 86.0058594,96.728648 85.1035156,97.6218772 C84.2011719,98.5151064 83.2213542,99.3399762 82.1640625,100.096487 C81.1067708,100.852997 80.0039062,101.513804 78.8554688,102.078908 L78.8554688,102.078908 L79.703125,103.172658 Z M93.59375,113.371877 C94.46875,113.371877 95.2799479,113.24883 96.0273438,113.002737 C96.7747396,112.756643 97.421875,112.414846 97.96875,111.977346 C98.515625,111.539846 98.9440104,111.029429 99.2539062,110.446096 C99.5638021,109.862763 99.71875,109.233856 99.71875,108.559377 C99.71875,107.957815 99.6002604,107.397268 99.3632812,106.877737 C99.1263021,106.358205 98.7981771,105.888804 98.3789062,105.469533 C97.9596354,105.050263 97.4583333,104.694794 96.875,104.403127 C96.2916667,104.111461 95.6536458,103.91094 94.9609375,103.801565 C95.0338542,103.491669 95.1614583,103.108856 95.34375,102.653127 C95.125,102.59844 94.8515625,102.53008 94.5234375,102.448049 C94.1953125,102.366018 93.8626302,102.293101 93.5253906,102.229299 C93.188151,102.165497 92.8645833,102.101695 92.5546875,102.037893 C92.2447917,101.974091 91.9895833,101.923961 91.7890625,101.887502 L91.7890625,101.887502 L91.1875,102.899221 C91.6067708,103.026825 91.9029948,103.149872 92.0761719,103.268362 C92.249349,103.386851 92.3450521,103.555471 92.3632812,103.774221 C91.6341146,103.865367 90.9641927,104.056773 90.3535156,104.34844 C89.7428385,104.640106 89.21875,104.995575 88.78125,105.414846 C88.34375,105.834117 88.0065104,106.312632 87.7695312,106.850393 C87.5325521,107.388153 87.4140625,107.957815 87.4140625,108.559377 C87.4140625,109.233856 87.5644531,109.862763 87.8652344,110.446096 C88.1660156,111.029429 88.5898438,111.539846 89.1367188,111.977346 C89.6835938,112.414846 90.3352865,112.756643 91.0917969,113.002737 C91.8483073,113.24883 92.6822917,113.371877 93.59375,113.371877 Z M93.5664062,111.56719 C93.1471354,111.56719 92.7552083,111.489716 92.390625,111.334768 C92.0260417,111.17982 91.7070312,110.956513 91.4335938,110.664846 C91.1601562,110.373179 90.9414062,110.03594 90.7773438,109.653127 C90.6132812,109.270315 90.53125,108.841929 90.53125,108.367971 C90.53125,107.912242 90.6132812,107.492971 90.7773438,107.110158 C90.9414062,106.727346 91.1601562,106.394664 91.4335938,106.112112 C91.7070312,105.829559 92.0260417,105.606252 92.390625,105.44219 C92.7552083,105.278127 93.1471354,105.196096 93.5664062,105.196096 C93.9492188,105.196096 94.3183594,105.278127 94.6738281,105.44219 C95.0292969,105.606252 95.3391927,105.829559 95.6035156,106.112112 C95.8678385,106.394664 96.0820312,106.727346 96.2460938,107.110158 C96.4101562,107.492971 96.4921875,107.912242 96.4921875,108.367971 C96.4921875,108.841929 96.4147135,109.270315 96.2597656,109.653127 C96.1048177,110.03594 95.890625,110.373179 95.6171875,110.664846 C95.34375,110.956513 95.0292969,111.17982 94.6738281,111.334768 C94.3183594,111.489716 93.9492188,111.56719 93.5664062,111.56719 Z M115.25,109.871877 C115.924479,109.762502 116.68099,109.666799 117.519531,109.584768 C118.358073,109.502737 119.123698,109.443492 119.816406,109.407033 C120.16276,109.388804 120.654948,109.361461 121.292969,109.325002 C121.93099,109.288544 122.641927,109.256643 123.425781,109.229299 C124.209635,109.201955 125.039062,109.174612 125.914062,109.147268 C126.789062,109.119924 127.641276,109.09258 128.470703,109.065237 C129.30013,109.037893 130.07487,109.019664 130.794922,109.010549 C131.514974,109.001434 132.121094,108.996877 132.613281,108.996877 C133.214844,108.996877 133.830078,109.001434 134.458984,109.010549 C135.087891,109.019664 135.698568,109.028778 136.291016,109.037893 C136.883464,109.047007 137.430339,109.060679 137.931641,109.078908 C138.432943,109.097138 138.865885,109.115367 139.230469,109.133596 L139.230469,109.133596 L139.613281,106.590627 C139.121094,106.645315 138.574219,106.709117 137.972656,106.782033 C137.371094,106.85495 136.746745,106.923309 136.099609,106.987112 C135.452474,107.050914 134.800781,107.110158 134.144531,107.164846 C133.488281,107.219533 132.859375,107.255992 132.257812,107.274221 C131.911458,107.29245 131.469401,107.310679 130.931641,107.328908 C130.39388,107.347138 129.796875,107.374481 129.140625,107.41094 L129.140625,107.41094 L129.140625,101.313283 C130.234375,101.295054 131.309896,101.295054 132.367188,101.313283 C133.424479,101.331513 134.408854,101.358856 135.320312,101.395315 L135.320312,101.395315 L135.757812,98.9070334 C134.901042,99.0164084 133.866536,99.1257834 132.654297,99.2351584 C131.442057,99.3445334 130.207031,99.4356793 128.949219,99.5085959 C127.691406,99.5815126 126.501953,99.6362001 125.380859,99.6726584 C124.259766,99.7091168 123.361979,99.7182314 122.6875,99.7000022 C122.505208,99.7000022 122.36849,99.6954449 122.277344,99.6863303 C122.186198,99.6772157 122.117839,99.649872 122.072266,99.6042991 C122.026693,99.5587262 122.003906,99.4949241 122.003906,99.4128928 L122.003906,99.4128928 L122.003906,92.2078147 C122.80599,92.1531272 123.740234,92.1121116 124.806641,92.0847678 C125.873047,92.0574241 126.989583,92.0437522 128.15625,92.0437522 C129.322917,92.0437522 130.503255,92.0574241 131.697266,92.0847678 C132.891276,92.1121116 134.035156,92.1531272 135.128906,92.2078147 L135.128906,92.2078147 L135.621094,89.8015647 C135.074219,89.8927105 134.349609,89.9747418 133.447266,90.0476584 C132.544922,90.1205751 131.53776,90.1843772 130.425781,90.2390647 C129.313802,90.2937522 128.142578,90.3347678 126.912109,90.3621116 C125.681641,90.3894553 124.473958,90.3985699 123.289062,90.3894553 C122.104167,90.3803407 120.978516,90.3438824 119.912109,90.2800803 C118.845703,90.2162782 117.920573,90.1205751 117.136719,89.9929709 L117.136719,89.9929709 L116.535156,91.1687522 C117.082031,91.2963564 117.510417,91.4194032 117.820312,91.5378928 C118.130208,91.6563824 118.367188,91.7976584 118.53125,91.9617209 C118.695312,92.1257834 118.80013,92.3263043 118.845703,92.5632834 C118.891276,92.8002626 118.914062,93.0919293 118.914062,93.4382834 L118.914062,93.4382834 L118.914062,99.5906272 C118.914062,100.119273 119.091797,100.579559 119.447266,100.971487 C119.802734,101.363414 120.335938,101.532033 121.046875,101.477346 C121.684896,101.440888 122.427734,101.413544 123.275391,101.395315 C124.123047,101.377086 125.048177,101.358856 126.050781,101.340627 L126.050781,101.340627 L126.050781,107.492971 C125.43099,107.5112 124.820312,107.524872 124.21875,107.533987 C123.617188,107.543101 123.042969,107.547658 122.496094,107.547658 L122.496094,107.547658 L120.978516,107.547658 C120.513672,107.547658 120.117188,107.538544 119.789062,107.520315 C119.369792,107.502086 118.91862,107.479299 118.435547,107.451955 C117.952474,107.424612 117.464844,107.392711 116.972656,107.356252 C116.480469,107.319794 116.001953,107.278778 115.537109,107.233205 C115.072266,107.187632 114.639323,107.137502 114.238281,107.082815 L114.238281,107.082815 L115.25,109.871877 Z M160.066406,107.602346 C160.467448,107.5112 160.863932,107.438283 161.255859,107.383596 C161.647786,107.328908 162.035156,107.255992 162.417969,107.164846 C162.472656,106.85495 162.531901,106.481252 162.595703,106.043752 C162.659505,105.606252 162.714193,105.141408 162.759766,104.649221 C162.805339,104.157033 162.841797,103.669403 162.869141,103.18633 C162.896484,102.703257 162.910156,102.252086 162.910156,101.832815 L162.910156,101.832815 L162.910156,90.4578147 C162.910156,90.4395855 162.923828,90.3256532 162.951172,90.1160178 C162.978516,89.9063824 163.010417,89.6648459 163.046875,89.3914084 C163.083333,89.1179709 163.124349,88.8445334 163.169922,88.5710959 C163.215495,88.2976584 163.25651,88.0789084 163.292969,87.9148459 C162.928385,87.8601584 162.477214,87.7872418 161.939453,87.6960959 C161.401693,87.6049501 160.836589,87.5046897 160.244141,87.3953147 C159.651693,87.2859397 159.072917,87.1856793 158.507812,87.0945334 C157.942708,87.0033876 157.450521,86.9304709 157.03125,86.8757834 C156.940104,87.0763043 156.839844,87.2768251 156.730469,87.4773459 L156.730469,87.4773459 L156.402344,88.0789084 C157.623698,88.3888043 158.498698,88.7169293 159.027344,89.0632834 C159.55599,89.4096376 159.820312,89.8471376 159.820312,90.3757834 L159.820312,90.3757834 L159.820312,92.7000022 C159.419271,92.7364605 159.059245,92.759247 158.740234,92.7683616 C158.421224,92.7774762 158.111328,92.7820334 157.810547,92.7820334 C157.509766,92.7820334 157.208984,92.7729189 156.908203,92.7546897 C156.607422,92.7364605 156.265625,92.7182314 155.882812,92.7000022 C155.9375,92.2989605 155.98763,91.9343772 156.033203,91.6062522 C156.078776,91.2781272 156.128906,90.9864605 156.183594,90.7312522 C154.852865,90.8588564 153.576823,90.9591168 152.355469,91.0320334 C151.134115,91.1049501 149.91276,91.1414084 148.691406,91.1414084 C147.707031,91.1414084 146.708984,91.1095074 145.697266,91.0457053 C144.685547,90.9819032 143.632812,90.8770855 142.539062,90.7312522 C142.447917,90.931773 142.352214,91.1414084 142.251953,91.3601584 C142.151693,91.5789084 142.05599,91.7885439 141.964844,91.9890647 C142.402344,92.1166689 142.753255,92.2260439 143.017578,92.3171897 C143.281901,92.4083355 143.482422,92.5131532 143.619141,92.6316428 C143.755859,92.7501324 143.851562,92.900523 143.90625,93.0828147 C143.960938,93.2651064 143.997396,93.5020855 144.015625,93.7937522 C144.106771,95.3979189 144.193359,97.024872 144.275391,98.6746116 C144.357422,100.324351 144.5625,101.878388 144.890625,103.336721 C145.291667,103.282033 145.674479,103.222789 146.039062,103.158987 C146.403646,103.095184 146.786458,103.03594 147.1875,102.981252 C147.278646,102.525523 147.333333,102.179169 147.351562,101.94219 C148.591146,101.905731 149.908203,101.887502 151.302734,101.887502 C152.697266,101.887502 153.996094,101.923961 155.199219,101.996877 L155.199219,101.996877 L155.582031,100.383596 C155.81901,100.365367 156.124349,100.333466 156.498047,100.287893 C156.871745,100.24232 157.263672,100.201304 157.673828,100.164846 C158.083984,100.128388 158.480469,100.091929 158.863281,100.055471 C159.246094,100.019013 159.565104,100.000783 159.820312,100.000783 L159.820312,100.000783 L159.820312,102.762502 C159.820312,103.090627 159.829427,103.487112 159.847656,103.951955 C159.865885,104.416799 159.884115,104.881643 159.902344,105.346487 C159.920573,105.81133 159.943359,106.24883 159.970703,106.658987 C159.998047,107.069143 160.029948,107.383596 160.066406,107.602346 Z M147.378906,100.356252 L147.378906,100.137502 C147.378906,98.9343772 147.351562,97.7266949 147.296875,96.5144553 C147.242188,95.3022157 147.196615,94.0945334 147.160156,92.8914084 C148.144531,92.8184918 149.05599,92.759247 149.894531,92.7136741 C150.733073,92.6681012 151.644531,92.681773 152.628906,92.7546897 C152.592448,93.994273 152.55599,95.2110699 152.519531,96.4050803 C152.483073,97.5990907 152.446615,98.8158876 152.410156,100.055471 C151.608073,100.146617 150.778646,100.214976 149.921875,100.260549 C149.065104,100.306122 148.217448,100.338023 147.378906,100.356252 L147.378906,100.356252 Z M159.820312,98.4695334 C158.945312,98.5059918 158.161458,98.5151064 157.46875,98.4968772 C156.776042,98.478648 156.05599,98.4239605 155.308594,98.3328147 C155.345052,97.7494814 155.395182,97.166148 155.458984,96.5828147 C155.522786,95.9994814 155.591146,95.3979189 155.664062,94.7781272 C156.247396,94.6687522 156.91276,94.5684918 157.660156,94.4773459 C158.407552,94.3862001 159.127604,94.3315126 159.820312,94.3132834 L159.820312,94.3132834 L159.820312,98.4695334 Z M151.425781,112.606252 C152.391927,112.606252 153.499349,112.574351 154.748047,112.510549 C155.996745,112.446747 157.322917,112.414846 158.726562,112.414846 C159.65625,112.414846 160.585938,112.423961 161.515625,112.44219 C162.445312,112.460419 163.365885,112.496877 164.277344,112.551565 C164.332031,112.150523 164.391276,111.740367 164.455078,111.321096 C164.51888,110.901825 164.578125,110.491669 164.632812,110.090627 C163.921875,110.200002 163.097005,110.300263 162.158203,110.391408 C161.219401,110.482554 160.257812,110.564586 159.273438,110.637502 C158.289062,110.710419 157.327474,110.765106 156.388672,110.801565 C155.44987,110.838023 154.625,110.856252 153.914062,110.856252 C153.385417,110.856252 153.057292,110.838023 152.929688,110.801565 C152.802083,110.765106 152.738281,110.564586 152.738281,110.200002 L152.738281,110.200002 L152.738281,107.110158 C152.738281,106.964325 152.747396,106.786591 152.765625,106.576955 L152.765625,106.576955 L152.820312,105.948049 C152.838542,105.738414 152.856771,105.54245 152.875,105.360158 C152.893229,105.177867 152.911458,105.032033 152.929688,104.922658 C152.65625,104.867971 152.282552,104.808726 151.808594,104.744924 C151.334635,104.681122 150.842448,104.61732 150.332031,104.553518 C149.821615,104.489716 149.333984,104.425914 148.869141,104.362112 C148.404297,104.298309 148.035156,104.248179 147.761719,104.211721 C147.670573,104.412242 147.570312,104.61732 147.460938,104.826955 C147.351562,105.036591 147.242188,105.241669 147.132812,105.44219 C147.734375,105.588023 148.199219,105.715627 148.527344,105.825002 C148.855469,105.934377 149.101562,106.066539 149.265625,106.221487 C149.429688,106.376434 149.529948,106.572398 149.566406,106.809377 C149.602865,107.046356 149.621094,107.356252 149.621094,107.739065 L149.621094,107.739065 L149.621094,111.047658 C149.621094,111.466929 149.757812,111.831513 150.03125,112.141408 C150.304688,112.451304 150.769531,112.606252 151.425781,112.606252 Z" id="전시장도면" fill="#095841" fill-rule="nonzero"></path>
                        <circle id="Oval-Copy" stroke="#2F846B" stroke-width="2.4000001" cx="96.0000038" cy="96.0000038" r="94.8000038"></circle>
                    </g>
                    <path d="M209.035208,18.6744007 C207.360008,18.9540008 205.686008,19.2396008 204.010808,19.5120008 C201.872408,19.8624008 199.729208,20.1852008 197.595608,20.5536008 C195.381608,20.9364008 194.552408,22.5600009 194.166008,24.525601 C193.554008,27.6492011 192.973208,30.7776012 192.366008,33.9024013 C192.264008,34.4268014 192.102008,34.9392014 191.966408,35.4552014 C191.770808,35.4684014 191.576408,35.4804014 191.380808,35.4936014 C190.785608,32.9496013 190.184408,30.4044012 189.595208,27.8592011 C189.268808,26.4504011 189.031208,25.018801 188.631607,23.6328009 C188.124007,21.8724009 186.952807,20.8656008 185.056807,20.6532008 C181.755607,20.2860008 178.462807,19.8288008 175.171207,19.3836008 C174.777607,19.3296008 174.408007,19.1112008 174.000007,18.5436007 C176.067607,18.1728007 178.132807,17.7852007 180.206407,17.4396007 C181.846807,17.1648007 183.500407,16.9728007 185.139607,16.6908007 C187.269607,16.3248006 188.359207,14.9916006 188.688007,12.8796005 C189.256808,9.23640037 189.892808,5.60160022 190.518008,1.96800008 C190.632008,1.30440005 190.833608,0.656400026 190.994408,-1.42108547e-14 C191.184008,0.00360000014 191.373608,0.00600000024 191.563208,0.00840000033 C191.734808,0.871200035 191.908808,1.73400007 192.074408,2.5980001 C192.704408,5.86560023 193.323608,9.13560036 193.959608,12.4020005 C194.504408,15.1944006 195.499208,16.2252006 198.369608,16.6476007 C201.514808,17.1096007 204.681608,17.4216007 207.837608,17.8116007 C208.232408,17.8608007 208.616408,17.9904007 209.007608,18.0816007 C209.016008,18.2796007 209.025608,18.4776007 209.035208,18.6744007" id="Fill-1" fill="#1C745A"></path>
                </g>
                <path d="M59.125,125.374999 L61.4492188,124.964843 C61.5039062,124.654947 61.563151,124.281249 61.6269531,123.843749 C61.6907552,123.406249 61.75,122.941406 61.8046875,122.449218 C61.859375,121.957031 61.9003906,121.4694 61.9277344,120.986327 C61.9550781,120.503254 61.96875,120.052083 61.96875,119.632812 L61.96875,119.632812 L61.96875,108.257812 C61.96875,108.239583 61.9778646,108.12565 61.9960938,107.916015 C62.0143229,107.706379 62.0416667,107.464843 62.078125,107.191406 C62.1145833,106.917968 62.1464844,106.644531 62.1738281,106.371093 C62.2011719,106.097656 62.2330729,105.878906 62.2695312,105.714843 C61.9231771,105.660156 61.4811198,105.587239 60.9433594,105.496093 C60.405599,105.404947 59.8450521,105.304687 59.2617188,105.195312 C58.6783854,105.085937 58.1041667,104.985676 57.5390625,104.894531 C56.9739583,104.803385 56.4817708,104.730468 56.0625,104.675781 L56.0625,104.675781 L55.4335938,105.878906 C56.6367188,106.188801 57.5071615,106.512369 58.0449219,106.849609 C58.5826823,107.186848 58.8515625,107.619791 58.8515625,108.148437 L58.8515625,108.148437 L58.8515625,113.589843 C58.46875,113.608072 58.0996094,113.621744 57.7441406,113.630859 C57.3886719,113.639973 57.0833333,113.644531 56.828125,113.644531 C56.5546875,113.644531 56.2356771,113.635416 55.8710938,113.617187 C55.5065104,113.598958 55.1373698,113.576171 54.7636719,113.548827 C54.389974,113.521484 54.0345052,113.485025 53.6972656,113.439452 C53.360026,113.393879 53.0820312,113.352864 52.8632812,113.316406 L52.8632812,113.316406 L54.0664062,115.777343 C54.3398438,115.704426 54.6588542,115.640624 55.0234375,115.585937 C55.3880208,115.531249 55.7799479,115.476562 56.1992188,115.421874 C56.6184896,115.367187 57.0559896,115.317057 57.5117188,115.271484 C57.9674479,115.225911 58.4140625,115.184895 58.8515625,115.148437 L58.8515625,115.148437 L58.8515625,120.562499 C58.8515625,120.890624 58.8561198,121.282551 58.8652344,121.738281 C58.874349,122.19401 58.8925781,122.654296 58.9199219,123.11914 C58.9472656,123.583984 58.9791667,124.021484 59.015625,124.43164 C59.0520833,124.841796 59.0885417,125.156249 59.125,125.374999 L59.125,125.374999 Z M41.4335938,121.820312 C42.8736979,121.127603 44.3229167,120.307291 45.78125,119.359374 C47.2395833,118.411458 48.5885417,117.317708 49.828125,116.078124 C50.7213542,116.898437 51.610026,117.773437 52.4941406,118.703124 C53.3782552,119.632812 54.1757812,120.489583 54.8867188,121.273437 L54.8867188,121.273437 L57.1835938,119.195312 C56.0716146,118.557291 54.9915365,117.860025 53.9433594,117.103515 C52.8951823,116.347004 51.9153646,115.613281 51.0039062,114.902343 C51.8059896,113.990885 52.530599,113.038411 53.1777344,112.044921 C53.8248698,111.051432 54.3580729,110.007812 54.7773438,108.914062 L54.7773438,108.914062 L53.875,108.011718 C52.78125,108.212239 51.5735677,108.367187 50.2519531,108.476562 C48.9303385,108.585937 47.5859375,108.63151 46.21875,108.613281 C45.9453125,108.613281 45.5898438,108.599609 45.1523438,108.572265 C44.7148438,108.544921 44.2727865,108.508463 43.8261719,108.46289 C43.3795573,108.417317 42.9511719,108.367187 42.5410156,108.312499 C42.1308594,108.257812 41.8072917,108.212239 41.5703125,108.175781 L41.5703125,108.175781 L43.2929688,110.773437 C43.5846354,110.736978 43.921875,110.691406 44.3046875,110.636718 C44.6875,110.582031 45.0748698,110.536458 45.4667969,110.499999 C45.858724,110.463541 46.2278646,110.427083 46.5742188,110.390624 C46.9205729,110.354166 47.1940104,110.335937 47.3945312,110.335937 C47.9231771,110.317708 48.4928385,110.290364 49.1035156,110.253906 C49.7141927,110.217447 50.2838542,110.190103 50.8125,110.171874 C49.9010417,112.140624 48.5748698,114.054687 46.8339844,115.914062 C45.093099,117.773437 43.0013021,119.395833 40.5585938,120.781249 L40.5585938,120.781249 L41.4335938,121.820312 Z M50.4999677,130.443649 L50.703125,130.433593 C51.5052083,130.378906 52.4075521,130.33789 53.4101562,130.310546 C54.4127604,130.283202 55.4609375,130.260416 56.5546875,130.242187 C57.6484375,130.223958 58.764974,130.228515 59.9042969,130.255859 C61.0436198,130.283202 62.1601562,130.324218 63.2539062,130.378906 L63.2539062,130.378906 L63.6640625,127.890624 C62.8802083,128.018228 61.9778646,128.132161 60.9570312,128.232421 C59.9361979,128.332682 58.8971354,128.414713 57.8398438,128.478515 C56.7825521,128.542317 55.766276,128.592447 54.7910156,128.628906 C53.8157552,128.665364 52.9908854,128.674478 52.3164062,128.656249 C52.0611979,128.63802 51.90625,128.601562 51.8515625,128.546874 C51.796875,128.492187 51.7695312,128.309895 51.7695312,127.999999 L51.7695312,127.999999 L51.7695312,124.910156 C51.7695312,124.746093 51.7786458,124.563801 51.796875,124.363281 C51.8151042,124.16276 51.8333333,123.957682 51.8515625,123.748046 C51.8697917,123.538411 51.8880208,123.342447 51.90625,123.160156 C51.9244792,122.977864 51.9427083,122.832031 51.9609375,122.722656 C51.6875,122.667968 51.3138021,122.608723 50.8398438,122.544921 C50.3658854,122.481119 49.8736979,122.41276 49.3632812,122.339843 C48.8528646,122.266926 48.3652344,122.203124 47.9003906,122.148437 C47.4355469,122.093749 47.0664062,122.048176 46.7929688,122.011718 L46.7929688,122.011718 L46.1640625,123.242187 C46.7473958,123.38802 47.203125,123.515624 47.53125,123.624999 C47.859375,123.734374 48.1054688,123.866536 48.2695312,124.021484 C48.4335938,124.176432 48.5338542,124.367838 48.5703125,124.595702 C48.6067708,124.823567 48.625,125.128906 48.625,125.511718 L48.625,125.511718 L48.625,128.874999 C48.625,129.29427 48.7799479,129.672525 49.0898438,130.009765 C49.3997396,130.347004 49.9375,130.488281 50.703125,130.433593 L50.4999677,130.443649 Z M85.484375,131.527343 L87.8085938,131.199218 C87.8815104,130.798176 87.9498698,130.260416 88.0136719,129.585937 C88.077474,128.911458 88.1321615,128.20052 88.1777344,127.453124 C88.2233073,126.705728 88.2597656,125.96289 88.2871094,125.224609 C88.3144531,124.486327 88.328125,123.834635 88.328125,123.269531 L88.328125,123.269531 L88.3288845,108.240722 C88.3314164,108.198947 88.3402778,108.090711 88.3554688,107.916015 C88.3736979,107.706379 88.4010417,107.464843 88.4375,107.191406 L88.4375,107.191406 L88.546875,106.371093 C88.5833333,106.097656 88.6289062,105.878906 88.6835938,105.714843 C88.3190104,105.660156 87.8678385,105.587239 87.3300781,105.496093 C86.7923177,105.404947 86.2317708,105.304687 85.6484375,105.195312 C85.0651042,105.085937 84.4908854,104.985676 83.9257812,104.894531 C83.3606771,104.803385 82.8684896,104.730468 82.4492188,104.675781 L82.4492188,104.675781 L81.8203125,105.878906 C83.0234375,106.188801 83.8938802,106.512369 84.4316406,106.849609 C84.969401,107.186848 85.2382812,107.619791 85.2382812,108.148437 L85.2382812,108.148437 L85.2382812,125.238281 C85.2382812,125.766926 85.2428385,126.332031 85.2519531,126.933593 C85.2610677,127.535156 85.2792969,128.127603 85.3066406,128.710937 C85.3339844,129.29427 85.3613281,129.836588 85.3886719,130.33789 C85.4160156,130.839192 85.4479167,131.235676 85.484375,131.527343 L85.484375,131.527343 Z M67.8476562,123.953124 C69.5429688,122.768228 71.014974,121.583333 72.2636719,120.398437 C73.5123698,119.213541 74.6015625,117.946614 75.53125,116.597656 C76.515625,117.709635 77.5045573,118.880859 78.4980469,120.111327 C79.4915365,121.341796 80.4075521,122.458333 81.2460938,123.460937 L81.2460938,123.460937 L83.515625,121.191406 C82.3125,120.298176 81.0957031,119.300129 79.8652344,118.197265 C78.6347656,117.0944 77.5182292,116.041666 76.515625,115.039062 C77.0807292,114.164062 77.577474,113.261718 78.0058594,112.332031 C78.4342448,111.402343 78.8307292,110.399739 79.1953125,109.324218 C78.8307292,109.233072 78.4205729,109.11914 77.9648438,108.982421 C77.5091146,108.845702 77.0397135,108.704426 76.5566406,108.558593 C76.0735677,108.41276 75.5996094,108.271484 75.1347656,108.134765 C74.6699219,107.998046 74.2552083,107.884114 73.890625,107.792968 L73.890625,107.792968 L73.3164062,108.804687 C73.7174479,108.95052 74.0911458,109.123697 74.4375,109.324218 C74.7838542,109.524739 75.0026042,109.716145 75.09375,109.898437 C75.09375,109.953124 75.1028646,109.998697 75.1210938,110.035156 C75.1393229,110.071614 75.1529948,110.117187 75.1621094,110.171874 C75.171224,110.226562 75.1757812,110.299478 75.1757812,110.390624 C75.1757812,110.48177 75.1484375,110.609374 75.09375,110.773437 C74.8203125,111.757812 74.4375,112.796874 73.9453125,113.890624 C73.453125,114.984374 72.8606771,116.073567 72.1679688,117.158202 C71.4752604,118.242838 70.686849,119.291015 69.8027344,120.302734 C68.9186198,121.314452 67.9479167,122.239583 66.890625,123.078124 L66.890625,123.078124 L67.8476562,123.953124 Z M118.321094,131.527343 L120.645313,131.199218 C120.718229,130.798176 120.786589,130.260416 120.850391,129.585937 C120.914193,128.911458 120.96888,128.20052 121.014453,127.453124 C121.060026,126.705728 121.096484,125.96289 121.123828,125.224609 C121.151172,124.486327 121.164844,123.834635 121.164844,123.269531 L121.164844,123.269531 L121.164844,108.257812 C121.164844,108.239583 121.178516,108.12565 121.205859,107.916015 C121.233203,107.706379 121.260547,107.464843 121.287891,107.191406 C121.315234,106.917968 121.347135,106.644531 121.383594,106.371093 C121.420052,106.097656 121.45651,105.878906 121.492969,105.714843 C121.146615,105.660156 120.704557,105.587239 120.166797,105.496093 C119.629036,105.404947 119.06849,105.304687 118.485156,105.195312 C117.901823,105.085937 117.327604,104.985676 116.7625,104.894531 C116.197396,104.803385 115.705208,104.730468 115.285938,104.675781 L115.285938,104.675781 L114.657031,105.878906 C115.860156,106.188801 116.730599,106.512369 117.268359,106.849609 C117.80612,107.186848 118.075,107.619791 118.075,108.148437 L118.075,108.148437 L118.075,114.191406 C117.455208,114.227864 116.876432,114.246093 116.338672,114.246093 C115.800911,114.246093 115.33151,114.255208 114.930469,114.273437 C114.657031,114.273437 114.328906,114.268879 113.946094,114.259765 C113.563281,114.25065 113.180469,114.232421 112.797656,114.205077 C112.414844,114.177734 112.054818,114.145833 111.717578,114.109374 C111.380339,114.072916 111.120573,114.045572 110.938281,114.027343 L110.938281,114.027343 L112.16875,116.460937 C112.460417,116.406249 112.825,116.351562 113.2625,116.296874 C113.7,116.242187 114.183073,116.187499 114.711719,116.132812 C115.240365,116.078124 115.791797,116.032551 116.366016,115.996093 C116.940234,115.959635 117.509896,115.923176 118.075,115.886718 L118.075,115.886718 L118.075854,125.641601 C118.077563,126.051757 118.081836,126.482421 118.088672,126.933593 C118.097786,127.535156 118.116016,128.127603 118.143359,128.710937 C118.170703,129.29427 118.198047,129.836588 118.225391,130.33789 C118.252734,130.839192 118.284635,131.235676 118.321094,131.527343 L118.321094,131.527343 Z M100.438281,123.953124 C102.024219,122.859374 103.427865,121.720051 104.649219,120.535156 C105.870573,119.35026 106.946094,118.119791 107.875781,116.843749 C108.823698,117.955728 109.785286,119.095051 110.760547,120.261718 C111.735807,121.428385 112.633594,122.503906 113.453906,123.488281 L113.453906,123.488281 L115.750781,121.218749 C114.565885,120.343749 113.367318,119.386718 112.155078,118.347656 C110.942839,117.308593 109.86276,116.305989 108.914844,115.339843 C110.09974,113.498697 111.056771,111.493489 111.785938,109.324218 C111.421354,109.233072 111.011198,109.11914 110.555469,108.982421 C110.09974,108.845702 109.630339,108.704426 109.147266,108.558593 C108.664193,108.41276 108.190234,108.271484 107.725391,108.134765 C107.260547,107.998046 106.845833,107.884114 106.48125,107.792968 L106.48125,107.792968 L105.907031,108.804687 C106.308073,108.95052 106.677214,109.123697 107.014453,109.324218 C107.351693,109.524739 107.565885,109.716145 107.657031,109.898437 C107.657031,109.953124 107.666146,109.998697 107.684375,110.035156 C107.702604,110.071614 107.720833,110.117187 107.739063,110.171874 C107.757292,110.226562 107.766406,110.299478 107.766406,110.390624 C107.766406,110.48177 107.739063,110.609374 107.684375,110.773437 C107.410938,111.757812 107.028125,112.796874 106.535938,113.890624 C106.04375,114.984374 105.451302,116.073567 104.758594,117.158202 C104.065885,118.242838 103.277474,119.291015 102.393359,120.302734 C101.509245,121.314452 100.538542,122.239583 99.48125,123.078124 L99.48125,123.078124 L100.438281,123.953124 Z M131.910937,116.761718 L134.153125,116.460937 C134.189583,116.351562 134.216927,116.233072 134.235156,116.105468 C134.253385,115.977864 134.280729,115.841145 134.317187,115.695312 C135.155729,115.677083 136.117318,115.663411 137.201953,115.654296 C138.286589,115.645182 139.375781,115.645182 140.469531,115.654296 C141.563281,115.663411 142.597786,115.677083 143.573047,115.695312 C144.548307,115.713541 145.345833,115.740885 145.965625,115.777343 L145.965625,115.777343 L146.403125,113.535156 C146.257292,113.553385 146.097786,113.567057 145.924609,113.576171 C145.751432,113.585286 145.555469,113.608072 145.336719,113.644531 C145.409635,113.079426 145.487109,112.459635 145.569141,111.785156 C145.651172,111.110676 145.73776,110.440754 145.828906,109.77539 C145.920052,109.110025 146.002083,108.467447 146.075,107.847656 C146.147917,107.227864 146.211719,106.690103 146.266406,106.234374 C145.063281,106.343749 143.750781,106.434895 142.328906,106.507812 C140.907031,106.580728 139.457812,106.626301 137.98125,106.644531 C136.504687,106.66276 135.046354,106.644531 133.60625,106.589843 C132.166146,106.535156 130.844531,106.425781 129.641406,106.261718 L129.641406,106.261718 L129.121875,107.492187 C129.541146,107.601562 129.873828,107.701822 130.119922,107.792968 C130.366016,107.884114 130.548307,107.993489 130.666797,108.121093 C130.785286,108.248697 130.867318,108.403645 130.912891,108.585937 C130.958464,108.768228 130.990365,109.023437 131.008594,109.351562 L131.008594,109.351562 L131.500781,113.945312 C131.53724,114.41927 131.601042,114.925129 131.692187,115.46289 C131.783333,116.00065 131.85625,116.433593 131.910937,116.761718 L131.910937,116.761718 Z M134.48125,114.054687 L134.48125,113.781249 C134.48125,113.690103 134.472135,113.571614 134.453906,113.425781 L134.453906,113.425781 L134.153125,108.449218 C134.627083,108.41276 135.23776,108.380859 135.985156,108.353515 C136.732552,108.326171 137.516406,108.303385 138.336719,108.285156 C139.157031,108.266926 139.963672,108.262369 140.756641,108.271484 C141.549609,108.280598 142.219531,108.29427 142.766406,108.312499 L142.766406,108.312499 L142.575,113.808593 C141.936979,113.826822 141.271615,113.845051 140.578906,113.863281 C139.886198,113.88151 139.184375,113.904296 138.473437,113.93164 C137.7625,113.958984 137.065234,113.98177 136.381641,113.999999 C135.698047,114.018228 135.064583,114.036458 134.48125,114.054687 L134.48125,114.054687 Z M137.871875,126.468749 L140.3875,126.058593 C140.423958,125.748697 140.460417,125.388671 140.496875,124.978515 C140.533333,124.568359 140.569792,124.153645 140.60625,123.734374 C140.642708,123.315103 140.670052,122.90039 140.688281,122.490234 C140.70651,122.080077 140.715625,121.720051 140.715625,121.410156 L140.715625,121.410156 L140.715625,120.097656 C141.517708,120.061197 142.233203,120.047525 142.862109,120.05664 C143.491016,120.065754 144.024219,120.070312 144.461719,120.070312 C145.063281,120.070312 145.673958,120.079426 146.29375,120.097656 C146.913542,120.115885 147.515104,120.134114 148.098437,120.152343 C148.681771,120.170572 149.224089,120.188801 149.725391,120.207031 C150.226693,120.22526 150.659635,120.243489 151.024219,120.261718 L151.024219,120.261718 L151.461719,117.691406 C150.951302,117.764322 150.395312,117.837239 149.79375,117.910156 C149.192187,117.983072 148.567839,118.051432 147.920703,118.115234 C147.273568,118.179036 146.621875,118.238281 145.965625,118.292968 C145.309375,118.347656 144.680469,118.384114 144.078906,118.402343 C143.641406,118.420572 143.067187,118.443359 142.35625,118.470702 C141.645312,118.498046 140.866016,118.520833 140.018359,118.539062 C139.170703,118.557291 138.286589,118.580077 137.366016,118.607421 C136.445443,118.634765 135.561328,118.652994 134.713672,118.662109 C133.866016,118.671223 133.086719,118.675781 132.375781,118.675781 L132.079464,118.675222 C131.503571,118.67299 131.028125,118.664062 130.653125,118.648437 C129.832812,118.611978 128.903125,118.552734 127.864062,118.470702 C126.825,118.388671 125.895312,118.302083 125.075,118.210937 L125.075,118.210937 L126.16875,120.917968 C126.478646,120.88151 126.829557,120.840494 127.221484,120.794921 C127.613411,120.749348 128.009896,120.703775 128.410937,120.658202 C128.811979,120.612629 129.208464,120.571614 129.600391,120.535156 C129.992318,120.498697 130.352344,120.471353 130.680469,120.453124 C130.953906,120.434895 131.336719,120.412109 131.828906,120.384765 C132.321094,120.357421 132.877083,120.334635 133.496875,120.316406 C134.116667,120.298176 134.782031,120.27539 135.492969,120.248046 C136.203906,120.220702 136.914844,120.197916 137.625781,120.179687 L137.625781,120.179687 L137.625781,121.820312 C137.625781,122.057291 137.630339,122.367187 137.639453,122.749999 C137.648568,123.132812 137.666797,123.542968 137.694141,123.980468 L137.694141,123.980468 L137.776172,125.292968 C137.803516,125.730468 137.835417,126.122395 137.871875,126.468749 L137.871875,126.468749 Z M133.380608,130.443649 L133.578906,130.433593 C134.38099,130.378906 135.365365,130.33789 136.532031,130.310546 C137.698698,130.283202 138.924609,130.264973 140.209766,130.255859 C141.494922,130.246744 142.79375,130.255859 144.10625,130.283202 C145.41875,130.310546 146.63099,130.351562 147.742969,130.406249 L147.742969,130.406249 L148.153125,127.917968 C147.642708,128.009114 147.027474,128.086588 146.307422,128.15039 C145.58737,128.214192 144.826302,128.277994 144.024219,128.341796 C143.222135,128.405598 142.397266,128.455728 141.549609,128.492187 C140.701953,128.528645 139.881641,128.560546 139.088672,128.58789 C138.295703,128.615234 137.566536,128.633463 136.901172,128.642577 C136.235807,128.651692 135.67526,128.656249 135.219531,128.656249 C134.946094,128.63802 134.782031,128.601562 134.727344,128.546874 C134.672656,128.492187 134.645312,128.309895 134.645312,127.999999 L134.645312,127.999999 L134.645312,125.156249 C134.645312,124.828124 134.663542,124.43164 134.7,123.966796 C134.736458,123.501952 134.772917,123.160156 134.809375,122.941406 C134.535937,122.904947 134.16224,122.85026 133.688281,122.777343 C133.214323,122.704426 132.726693,122.63151 132.225391,122.558593 C131.724089,122.485676 131.241016,122.421874 130.776172,122.367187 C130.311328,122.312499 129.942187,122.266926 129.66875,122.230468 L129.66875,122.230468 L129.149219,123.460937 C129.714323,123.60677 130.160937,123.734374 130.489062,123.843749 C130.817187,123.953124 131.058724,124.085286 131.213672,124.240234 C131.36862,124.395182 131.464323,124.586588 131.500781,124.814452 C131.53724,125.042317 131.555469,125.347656 131.555469,125.730468 L131.555469,125.730468 L131.555469,128.874999 C131.555469,129.29427 131.705859,129.672525 132.006641,130.009765 C132.307422,130.347004 132.83151,130.488281 133.578906,130.433593 L133.380608,130.443649 Z" id="전시서문" fill="#095841" fill-rule="nonzero"></path>
            </g>
        </g>
    </g>
</svg>