<svg xmlns="http://www.w3.org/2000/svg" width="384" height="228" viewBox="0 0 384 228">
    <g fill="none" fill-rule="evenodd">
        <g transform="translate(0 18)">
            <path fill="#095841" fill-rule="nonzero" d="M59.955 102.845c.055-.237.105-.552.15-.944.046-.392.087-.816.124-1.271.036-.456.068-.903.095-1.34a18.7 18.7 0 0 0 .041-1.149v-.847h2.68c.456 0 .889.004 1.299.013.41.01.752.023 1.025.041l.328-2.488a177.201 177.201 0 0 1-2.611.37 88 88 0 0 1-1.436.177c-.474.055-.902.11-1.285.164l.001-5.13a57.046 57.046 0 0 1 .095-1.05c.027-.273.06-.546.096-.82.036-.273.073-.492.109-.656a114.861 114.861 0 0 1-2.912-.52c-.574-.11-1.158-.21-1.75-.3a48.425 48.425 0 0 0-1.572-.22l-.465 1.204c1.203.31 2.055.633 2.556.97.502.338.752.77.752 1.3v9.242c0 .255.01.547.028.875l.054.998c.019.337.041.656.069.957.027.3.059.551.095.752l2.434-.328zm-19.66.52a40.252 40.252 0 0 0 4.375-2.38 26.393 26.393 0 0 0 4.184-3.226c.911.82 1.804 1.636 2.68 2.447.874.811 1.75 1.581 2.624 2.31l2.27-1.996a39.252 39.252 0 0 1-3.541-2.01 51.891 51.891 0 0 1-2.83-1.955 17.418 17.418 0 0 0 2.255-2.693 15.157 15.157 0 0 0 1.6-3.076L52.9 89.91c-.528.11-1.102.205-1.722.287a38.626 38.626 0 0 1-4.02.314c-.693.019-1.367.028-2.023.028-.31 0-.684-.014-1.121-.041-.438-.028-.884-.06-1.34-.096a23.267 23.267 0 0 1-1.285-.137c-.401-.054-.711-.1-.93-.136l1.668 2.57c.31-.055.66-.11 1.053-.164.392-.055.784-.105 1.175-.15.392-.046.757-.082 1.094-.11.337-.027.606-.05.807-.068.51-.037 1.098-.069 1.764-.096.665-.027 1.253-.05 1.763-.068-.42.984-.98 1.96-1.681 2.926a23.66 23.66 0 0 1-5.332 5.277 25.465 25.465 0 0 1-3.323 2.023l.848 1.094zm19.414 9.679c.255-.784.396-1.5.424-2.147a42.1 42.1 0 0 0 .04-1.763v-3.637c0-.31.01-.629.028-.957.018-.328.055-.72.11-1.176-.693.091-1.586.178-2.68.26-1.094.082-2.26.155-3.5.219-1.24.063-2.47.114-3.692.15a109.66 109.66 0 0 1-3.226.055c-.255 0-.56-.01-.916-.028a25.429 25.429 0 0 1-1.108-.082c-.382-.036-.756-.073-1.12-.11a17.741 17.741 0 0 1-.903-.108l1.148 2.488c.602-.091 1.199-.182 1.791-.274a19.66 19.66 0 0 1 1.764-.191c.711-.036 1.454-.082 2.229-.137a180.39 180.39 0 0 1 2.351-.15 69.306 69.306 0 0 1 2.365-.096 44.815 44.815 0 0 1 2.215 0v4.403c0 .218.01.496.028.833.018.338.04.684.068 1.04.027.355.055.697.082 1.025.027.328.06.602.096.82l2.406-.437zm26.906.355c.055-.4.11-.939.164-1.613.055-.675.1-1.385.137-2.133.036-.747.068-1.495.096-2.242.027-.747.04-1.395.04-1.941v-4.868h2.735c.456 0 .889.005 1.299.014.41.01.761.023 1.053.041l.218-2.57c-.346.073-.738.136-1.175.191-.438.055-.894.11-1.368.164-.474.055-.952.105-1.435.15l-1.326.124v-8.258a57.046 57.046 0 0 1 .096-1.066c.027-.274.059-.547.095-.82.037-.274.073-.493.11-.657a114.861 114.861 0 0 1-2.912-.52c-.575-.11-1.158-.21-1.75-.3a48.425 48.425 0 0 0-1.573-.22l-.465 1.204c1.203.31 2.056.633 2.557.97.501.338.752.77.752 1.3v17.09c0 .528.004 1.093.014 1.695.009.601.027 1.194.054 1.777.028.583.055 1.126.082 1.627.028.501.06.898.096 1.19l2.406-.329zm-18.976-5.77a31.95 31.95 0 0 0 4.416-2.884 29.573 29.573 0 0 0 3.828-3.555 26.9 26.9 0 0 0 3.062-4.129 24.045 24.045 0 0 0 2.147-4.58l-1.04-.984c-.528.11-1.134.21-1.818.3-.683.092-1.394.165-2.132.22-.739.054-1.482.1-2.229.136-.747.037-1.45.055-2.105.055-.31 0-.684-.018-1.122-.055-.437-.036-.88-.077-1.326-.123-.446-.045-.87-.091-1.271-.137a25.7 25.7 0 0 1-.957-.123l1.668 2.543c.291-.054.638-.11 1.039-.164.4-.054.797-.105 1.19-.15.391-.046.756-.082 1.093-.11.337-.027.606-.04.807-.04a52.908 52.908 0 0 0 2.064-.055 52.908 52.908 0 0 1 2.092-.055c-.31 1.04-.78 2.151-1.408 3.336a25.477 25.477 0 0 1-2.27 3.514 27.43 27.43 0 0 1-2.994 3.308 20.86 20.86 0 0 1-3.582 2.721l.848 1.012zm34.808 2.188c.675-.11 1.431-.205 2.27-.287a51.633 51.633 0 0 1 2.297-.178c.346-.018.838-.045 1.476-.082a96.87 96.87 0 0 1 2.133-.095c.784-.028 1.613-.055 2.488-.082l2.557-.082c.83-.028 1.604-.046 2.324-.055a127.407 127.407 0 0 1 3.664 0l1.832.027a78.694 78.694 0 0 1 2.94.096l.383-2.543a333.155 333.155 0 0 1-3.514.37c-.647.063-1.299.122-1.955.177-.656.055-1.285.1-1.887.137-.346.018-.788.036-1.326.054-.538.018-1.135.046-1.791.082v-6.562c1.148 0 2.279.004 3.39.013a99.41 99.41 0 0 1 3.063.069l.383-2.488c-.839.109-1.878.218-3.117.328-1.24.109-2.502.205-3.787.287-1.286.082-2.502.15-3.65.205-1.15.055-2.06.073-2.735.055-.274-.019-.456-.092-.547-.22-.091-.127-.137-.346-.137-.655V92.59c0-.347.018-.752.055-1.217.036-.465.073-.798.11-.998a22.137 22.137 0 0 0-1.177-.178c-.492-.064-1.002-.128-1.53-.191a136.69 136.69 0 0 1-1.518-.192 56.14 56.14 0 0 1-1.08-.15l-.63 1.203c.548.128.999.25 1.354.37.356.118.63.259.82.423.192.164.324.365.397.602.073.236.11.537.11.902v5.797c0 .291.036.57.109.834.073.264.191.492.355.683.164.192.374.342.63.451.254.11.564.146.929.11.638-.018 1.394-.046 2.27-.082.874-.037 1.822-.073 2.843-.11v6.59a128.585 128.585 0 0 1-3.555.055h-1.517c-.465 0-.862-.01-1.19-.027a103.898 103.898 0 0 1-2.816-.164c-.492-.037-.97-.082-1.436-.137-.464-.055-.897-.11-1.298-.164l1.011 2.816zm32.277-6.252l.208-.01a67.948 67.948 0 0 1 2.953-.123c1.166-.027 2.401-.045 3.705-.054 1.303-.01 2.611-.01 3.924 0 1.312.009 2.515.04 3.609.095l.438-2.488c-.857.11-1.887.219-3.09.328-1.203.11-2.43.2-3.678.274-1.249.073-2.43.127-3.541.164a46.96 46.96 0 0 1-2.68.027c-.182 0-.319-.004-.41-.014a.327.327 0 0 1-.205-.082.259.259 0 0 1-.068-.191v-3.65c.875-.037 1.85-.064 2.925-.082 1.076-.019 2.174-.032 3.295-.041 1.121-.01 2.224-.01 3.309 0 1.085.009 2.083.031 2.994.068l.41-2.461c-.656.11-1.522.21-2.597.3-1.076.092-2.224.174-3.446.247-1.221.073-2.438.137-3.65.191-1.212.055-2.292.091-3.24.11v-3.72c.802-.054 1.731-.1 2.789-.136 1.057-.036 2.164-.06 3.322-.068a95.669 95.669 0 0 1 6.932.205l.492-2.461a55.42 55.42 0 0 1-2.16.232c-.894.082-1.892.15-2.994.205-1.103.055-2.27.096-3.5.124-1.23.027-2.439.036-3.624.027a64.147 64.147 0 0 1-3.363-.11 27.887 27.887 0 0 1-2.762-.287l-.601 1.149c.547.146.975.278 1.285.396.31.119.547.26.711.424.164.164.269.365.314.602.046.237.069.528.069.875v8.039c0 .547.178 1.011.533 1.394.356.383.889.547 1.6.492l-.208.01zm-5.671 6.307c.674-.11 1.43-.205 2.27-.287a51.635 51.635 0 0 1 2.296-.178 352.4 352.4 0 0 0 1.477-.082 96.882 96.882 0 0 1 2.133-.096c.783-.027 1.613-.054 2.488-.082.875-.027 1.727-.054 2.556-.082.83-.027 1.605-.045 2.325-.054a127.407 127.407 0 0 1 3.664 0l1.832.027a78.687 78.687 0 0 1 2.94.096l.382-2.543c-.492.054-1.039.118-1.64.191-.602.073-1.227.141-1.874.205s-1.298.123-1.955.178c-.656.055-1.285.091-1.886.11-.438.017-.985.04-1.641.068-.656.027-1.372.05-2.147.068-.774.018-1.576.041-2.406.068-.83.028-1.636.046-2.42.055-.784.01-1.508.014-2.174.014a43.207 43.207 0 0 1-3.035-.096c-.483-.027-.97-.06-1.463-.096a60.6 60.6 0 0 1-1.435-.123 34.723 34.723 0 0 1-1.299-.15l1.012 2.789z"/>
            <circle cx="96" cy="96" r="94.8" stroke="#2F846B" stroke-width="2.4"/>
        </g>
        <g transform="translate(192 18)">
            <path fill="#095841" fill-rule="nonzero" d="M45.38 99.126a9.732 9.732 0 0 0 2.79-.383c.857-.255 1.59-.615 2.201-1.08a5.217 5.217 0 0 0 1.436-1.64c.346-.63.52-1.318.52-2.065a3.97 3.97 0 0 0-.397-1.75 5.195 5.195 0 0 0-1.094-1.49 6.26 6.26 0 0 0-1.682-1.135 8.068 8.068 0 0 0-2.16-.656c.073-.201.141-.397.205-.588.064-.192.123-.388.178-.588a30.92 30.92 0 0 1-.875-.15 53.227 53.227 0 0 1-1.053-.206 69.071 69.071 0 0 0-1.873-.355l-.52 1.039c.383.11.67.219.862.328.191.11.324.264.396.465a7.839 7.839 0 0 0-2.27.588c-.692.3-1.289.679-1.79 1.135-.501.455-.893.97-1.176 1.544a4.066 4.066 0 0 0-.424 1.819 4.3 4.3 0 0 0 .506 2.064 5.125 5.125 0 0 0 1.408 1.64c.602.466 1.313.826 2.133 1.081.82.255 1.714.383 2.68.383zm.138-1.778c-.493 0-.957-.082-1.395-.246a3.24 3.24 0 0 1-1.135-.71 3.481 3.481 0 0 1-1.053-2.543c0-.475.096-.926.288-1.354a3.59 3.59 0 0 1 1.927-1.873 3.52 3.52 0 0 1 1.368-.274c.455 0 .902.092 1.34.274.437.182.824.433 1.162.752.337.319.606.693.806 1.12.2.43.301.88.301 1.354 0 .53-.1 1.008-.3 1.436-.201.428-.466.798-.794 1.107-.328.31-.71.547-1.148.711a3.862 3.862 0 0 1-1.367.246zm-.957 16.325l2.46-.41c.055-.383.114-.83.178-1.34.064-.51.114-1.04.15-1.586.037-.547.069-1.099.096-1.655.028-.556.041-1.08.041-1.572v-4.21c.82-.055 1.554-.083 2.202-.083h1.681c.602 0 1.212.01 1.832.028.62.018 1.222.031 1.805.04a78.87 78.87 0 0 1 2.926.096l.382-2.57c-.492.073-1.039.141-1.64.205-.602.064-1.226.128-1.873.191-.647.064-1.299.123-1.955.178-.657.055-1.285.091-1.887.11-.438.018-.998.036-1.682.054a341 341 0 0 0-2.256.069c-.82.027-1.672.05-2.556.068l-.657.014-1.9.04c-.82.019-1.577.028-2.27.028h-1.695a47.39 47.39 0 0 1-1.298-.082 96.68 96.68 0 0 1-1.477-.123 96.667 96.667 0 0 0-1.477-.123 22.279 22.279 0 0 1-1.326-.137l1.094 2.707 1.039-.123c.383-.045.77-.086 1.162-.123l1.19-.11c.4-.036.774-.063 1.12-.081.274-.019.634-.041 1.08-.069.447-.027.953-.05 1.518-.068.565-.018 1.176-.037 1.832-.055.657-.018 1.331-.027 2.024-.027v6.467c0 .52.004 1.043.014 1.572.009.529.022 1.03.04 1.504.019.474.046.866.083 1.176zm32.62-6.535l2.462-.383c.054-.292.104-.661.15-1.108.046-.446.087-.916.123-1.408.036-.492.068-.984.096-1.476.027-.493.04-.94.04-1.34v-2.489h5.06l.218-2.488c-.328.073-.715.146-1.162.219-.447.073-.907.141-1.38.205-.475.064-.949.118-1.423.164-.474.046-.911.087-1.312.123v-6.7a16.137 16.137 0 0 1 .11-1.066l.108-.82c.037-.273.083-.492.137-.656-.346-.055-.78-.128-1.299-.219-.52-.091-1.07-.191-1.654-.3a58.503 58.503 0 0 0-3.281-.52l-.547 1.203c1.203.31 2.06.633 2.57.97.51.338.766.77.766 1.3v11.976c0 .346.009.752.027 1.217l.055 1.394c.018.465.04.894.068 1.285.028.392.05.698.069.917zM64.358 91.14c.237-.036.51-.068.82-.095l.93-.082c.31-.028.593-.05.848-.069.255-.018.447-.027.574-.027.237 0 .534-.005.889-.014l1.121-.027c.392-.01.775-.014 1.148-.014h.999l.52-2.023c-.402.055-.849.11-1.34.164-.493.055-.976.105-1.45.15-.474.046-.916.082-1.326.11-.41.027-.725.04-.944.04-.2 0-.487-.013-.86-.04a38.408 38.408 0 0 1-2.365-.26 9.393 9.393 0 0 1-.903-.164l1.34 2.351zm-3.964 3.418c.218-.036.51-.077.875-.123.364-.045.742-.086 1.134-.123.392-.036.775-.073 1.149-.11.373-.036.679-.054.916-.054.383-.018.87-.036 1.463-.054.592-.019 1.235-.041 1.927-.069.693-.027 1.418-.05 2.174-.068.757-.018 1.49-.032 2.201-.041.711-.01 1.372-.018 1.983-.028.61-.009 1.116-.004 1.517.014l.41-2.324c-.947.164-2.023.3-3.226.41-1.203.11-2.397.2-3.582.274a95.597 95.597 0 0 1-3.322.15c-1.03.027-1.846.05-2.448.068-.237 0-.556-.018-.957-.054a36.185 36.185 0 0 1-2.475-.314 11.848 11.848 0 0 1-.915-.179l1.176 2.625zm7.546 9.543c.839 0 1.623-.123 2.352-.369a6.023 6.023 0 0 0 1.887-1.012c.528-.428.943-.92 1.244-1.476.3-.556.451-1.135.451-1.736a3.61 3.61 0 0 0-.437-1.723 4.854 4.854 0 0 0-1.217-1.463c-.52-.428-1.144-.766-1.873-1.012-.73-.246-1.532-.369-2.407-.369-.82 0-1.59.114-2.31.342a6.128 6.128 0 0 0-1.873.943 4.551 4.551 0 0 0-1.258 1.45 3.75 3.75 0 0 0-.465 1.832c0 .601.15 1.18.451 1.736.301.556.716 1.044 1.245 1.463.528.42 1.153.756 1.873 1.012.72.255 1.499.382 2.337.382zm.028-1.75c-.365 0-.711-.077-1.04-.232a2.799 2.799 0 0 1-.86-.629 3.046 3.046 0 0 1-.807-2.092c0-.437.073-.838.219-1.203.145-.364.341-.679.587-.943.246-.265.534-.47.862-.615a2.53 2.53 0 0 1 1.039-.22c.346 0 .683.083 1.012.247a3.063 3.063 0 0 1 1.476 1.613c.146.365.219.738.219 1.121 0 .438-.078.834-.233 1.19-.155.355-.36.665-.615.93-.255.264-.542.469-.861.615a2.374 2.374 0 0 1-.998.218zm.804 10.287l.208-.005 2.72-.123c1.012-.046 2.074-.082 3.186-.11 1.112-.027 2.251-.04 3.418-.04 1.166 0 2.315.017 3.445.054l.383-2.434c-.766.11-1.668.214-2.707.315-1.04.1-2.092.196-3.158.287-1.067.091-2.097.16-3.09.205-.994.045-1.828.068-2.502.068-.31-.018-.492-.054-.547-.11-.055-.054-.082-.236-.082-.546v-2.57c0-.164.009-.351.027-.56l.055-.63c.018-.21.036-.405.055-.588.018-.182.036-.328.054-.437-.291-.055-.67-.114-1.134-.178-.465-.064-.948-.127-1.45-.191-.501-.064-.98-.128-1.435-.192a15.945 15.945 0 0 1-1.067-.177l-.601 1.257c.565.146 1.002.274 1.312.383.31.11.543.242.698.397.155.155.25.346.287.574.036.228.054.533.054.916v2.871c0 .42.169.793.506 1.121.337.328.862.474 1.573.438l-.208.005zm34.825 1.088l2.406-.328c.055-.4.11-.939.164-1.613.055-.675.1-1.385.137-2.133a92.706 92.706 0 0 0 .11-4.183V99.7h4.06c.41 0 .752.01 1.025.027l.328-2.543c-.364.073-.775.142-1.23.205-.456.064-.925.128-1.409.192-.483.064-.966.118-1.449.164-.483.045-.925.096-1.326.15v-7.454l.027-.325c.019-.21.041-.451.069-.725.027-.273.06-.546.096-.82.036-.273.072-.492.109-.656-.328-.055-.752-.128-1.272-.219s-1.066-.191-1.64-.3c-.574-.11-1.158-.21-1.75-.301a48.425 48.425 0 0 0-1.572-.22l-.465 1.204c1.203.31 2.055.633 2.556.97.502.338.752.77.752 1.3v10.226c-.857.273-1.804.551-2.843.834-1.04.283-2.07.538-3.09.766-1.021.227-1.974.423-2.858.588-.884.164-1.59.264-2.119.3-.091.019-.15-.027-.178-.136-.027-.11-.04-.301-.04-.575v-7.656c0-.036.008-.155.027-.355.018-.2.04-.433.068-.698.027-.264.06-.528.096-.793.036-.264.073-.478.11-.642a342.84 342.84 0 0 1-1.259-.192 49.465 49.465 0 0 0-3.049-.369c-.519-.045-.998-.077-1.435-.095l-.438 1.203c.602.11 1.08.218 1.436.328.355.11.629.232.82.369a.998.998 0 0 1 .383.478c.064.183.096.41.096.684v8.313c0 .875.232 1.522.697 1.941.465.42 1.226.547 2.283.383.802-.11 1.686-.283 2.653-.52a63.507 63.507 0 0 0 2.966-.806c1.012-.301 2.006-.62 2.98-.957.976-.338 1.874-.661 2.694-.971v5.441c0 .529.01 1.094.028 1.696.018.601.04 1.194.068 1.777.027.583.055 1.126.082 1.627.027.501.06.898.096 1.19zm29.011-3.035c.493 0 1.04-.04 1.641-.123a19.084 19.084 0 0 0 1.777-.328 14.07 14.07 0 0 0 1.655-.492c.52-.192.943-.397 1.271-.615l.766-4.813h-1.668c-.274 1.495-.82 2.689-1.64 3.582-.821.893-1.933 1.34-3.337 1.34a7.734 7.734 0 0 1-3.213-.684 7.921 7.921 0 0 1-2.652-1.941c-.756-.839-1.353-1.85-1.791-3.035-.437-1.185-.656-2.516-.656-3.992 0-1.35.2-2.575.601-3.678.401-1.103.957-2.042 1.668-2.817a7.546 7.546 0 0 1 2.502-1.804 7.508 7.508 0 0 1 3.104-.643c1.586 0 2.825.365 3.719 1.094.893.73 1.467 1.941 1.722 3.637h1.559l-.301-4.621c-1.02-.42-2.11-.784-3.268-1.094a13.634 13.634 0 0 0-3.54-.465c-1.404 0-2.767.26-4.089.78a11.317 11.317 0 0 0-3.513 2.173 10.773 10.773 0 0 0-2.461 3.322c-.62 1.286-.93 2.685-.93 4.198 0 1.64.27 3.14.807 4.498.538 1.358 1.294 2.52 2.27 3.486.975.966 2.141 1.714 3.5 2.242 1.357.529 2.857.793 4.497.793zm19.196 0l6.508-17.254c.2-.565.373-1.016.52-1.353.145-.337.309-.593.491-.766.183-.173.401-.287.657-.342a4.84 4.84 0 0 1 .984-.082v-1.312c-.328.036-.757.055-1.285.055h-1.696c-.601 0-1.194-.005-1.777-.014a55.174 55.174 0 0 1-1.504-.041v1.34c.547.018.97.045 1.272.082.3.036.501.123.601.26.1.136.114.35.041.642-.073.292-.2.693-.383 1.203l-4.703 12.797-4.648-12.496c-.2-.565-.342-1.007-.424-1.326-.082-.32-.073-.56.027-.725.1-.164.297-.273.588-.328.292-.055.711-.091 1.258-.11v-1.34c-.42.019-.989.033-1.709.042a178.465 178.465 0 0 1-4.484 0 22.58 22.58 0 0 1-1.655-.069v1.34c.51 0 .926.032 1.245.096.319.064.592.196.82.397.228.2.433.483.615.847.182.365.383.848.602 1.45l6.59 17.007h1.449z"/>
            <circle cx="96" cy="96" r="94.8" stroke="#2F846B" stroke-width="2.4"/>
        </g>
        <path fill="#1C745A" d="M205.21 210.312c-2.138.35-4.28.673-6.414 1.042-2.214.382-3.044 2.006-3.43 3.972-.612 3.123-1.193 6.252-1.8 9.376-.102.525-.264 1.037-.4 1.553l-.585.039c-.595-2.544-1.197-5.09-1.786-7.635-.326-1.409-.564-2.84-.963-4.226-.508-1.76-1.68-2.767-3.575-2.98-3.301-.367-6.594-.824-9.886-1.27-.393-.053-.763-.272-1.171-.84 2.068-.37 4.133-.758 6.206-1.103 1.64-.275 3.294-.467 4.934-.75 2.13-.365 3.22-1.698 3.548-3.81.569-3.644 1.205-7.278 1.83-10.912.114-.664.316-1.312.476-1.968.19.004.38.006.57.008.17.863.345 1.726.51 2.59.63 3.268 1.25 6.538 1.886 9.804.544 2.792 1.54 3.823 4.41 4.246 3.145.462 6.312.774 9.468 1.164.394.049.778.178 1.17.27a5.174 5.174 0 0 1 0 .462c-1.676.28-3.322.696-4.997.968z"/>
    </g>
</svg>
