<svg xmlns="http://www.w3.org/2000/svg" width="34" height="34" viewBox="0 0 34 34">
    <path fill="#FFF" fill-rule="evenodd" d="M17 0c9.39 0 17 7.61 17 17s-7.61 17-17 17C7.613 34 0 26.39 0 17S7.613 0 17 0zm3.663 10c-.434 0-.847.079-1.226.222a3.547 3.547 0 0 0-2.222 4.184l-.004-.004c-.33.052-.692.06-1.071.037-.708-.049-1.485-.228-2.299-.556-1.39-.559-2.887-1.554-4.317-3.072a3.548 3.548 0 0 0 1.555 4.778c.012.01.027.012.042.018-.11.013-.222.019-.334.019a3.596 3.596 0 0 1-1.648-.404c0 .018-.004.042-.004.067a3.55 3.55 0 0 0 2.94 3.494c-.277.07-.565.11-.86.11-.303 0-.601-.043-.883-.116a3.559 3.559 0 0 0 3.379 2.468c-1.22 1.294-2.994 1.71-4.998 1.615-.24-.012-.476-.012-.713-.03a10.437 10.437 0 0 0 5.717 1.697c5.799 0 10.498-4.703 10.498-10.498 0-.119-.003-.225-.006-.328a4.649 4.649 0 0 0 1.807-1.961 5.866 5.866 0 0 1-1.959.762c.71-.495 1.16-1.263 1.473-2.08-.61.44-1.312.762-2.074.941-.024-.027-.042-.058-.067-.085A3.55 3.55 0 0 0 20.663 10z"/>
</svg>
