<?xml version="1.0" encoding="utf-8"?>
<!-- Generator: Adobe Illustrator 24.0.1, SVG Export Plug-In . SVG Version: 6.00 Build 0)  -->
<svg version="1.1" id="Layer_1" xmlns="http://www.w3.org/2000/svg" xmlns:xlink="http://www.w3.org/1999/xlink" x="0px" y="0px"
	 viewBox="0 0 751.34 343.6" style="enable-background:new 0 0 751.34 343.6;" xml:space="preserve">
<style type="text/css">
	.st0{fill:#FFFFFF;}
</style>
<g>
	<path class="st0" d="M251.22,113.86c0,0.77,0,1.51,0,2.31c-11.03-1.36-28.08-2.25-40.62,5.53c-0.7-0.7,1.58-2.11,1.58-2.81
		c0.7-1.4,2.81-2.81,3.51-4.21c3.44-3.5,4.26-1.96,7.04-14.17c0.49-2.14,0.59-6.69,0.7-8.29c0.03-11.23,0.08-22.47,0.11-33.7
		c0-0.15-0.02-0.29-0.12-0.48c-1.45,2.21-2.92,4.41-4.4,6.6c-1.48,2.19-2.96,4.38-4.43,6.57c-5.22,6.97-13.64,11.18-15.75,19.61
		c-9.13-14.74-23.17-25.98-36.51-37.21c-4.21,22.47,19.66,35.81,26.68,55.46c-7.72-2.11-15.45,0-22.47,3.51
		c9.13-14.04-2.11-28.78-8.42-41.42c-2.81-7.02,0-14.04-0.7-21.06c-0.7-4.21-6.32-4.91-10.53-6.32c6.32-4.21,13.34-6.32,20.69-8.14
		c3.37-0.75,6.17-1.54,9.08-2.13c2.69-0.7,5.45-1.23,8.3-1.58c0,0.23,0.02,0.46,0,0.7c-0.28,3.42,0.51,6.56,2.37,9.44
		c1.9,2.93,3.73,5.91,5.22,8.46c4.9,7.3,9.11,13.62,14.03,20.64c0,0,6.39-6.95,8.9-10.71c2.51-3.76,5.02-7.53,7.52-11.3
		c0.32-0.48,0.52-1.14,0.53-1.71c0.05-3.68,0.02-7.37,0.02-11.12c9.23,0,18.42,0,27.66,0c0,0.75,0,1.49,0,2.25
		c-0.98,0.33-2,0.6-2.97,1c-2.63,1.1-4.12,3.02-4.14,5.97c-0.02,3.06-0.14,6.12-0.14,9.18c0.02,15.34,0.05,30.69,0.09,46.03
		c-0.02,1.67-0.04,3.33-0.4,4.53c-0.57,3.79,2.94,5.9,5.62,7.95C249.91,113.46,250.56,113.65,251.22,113.86z"/>
	<path class="st0" d="M488.52,61.33c-0.38-1.73-0.91-3.35-1.07-5.01c-0.67-6.94,4.62-11.49,9.37-12.77c2.04-0.55,4.1-0.7,6.12-0.14
		c4.03,1.12,6.35,5.52,4.69,9.36c-0.9,2.09-2.61,3.23-4.81,3.28c-1.98,0.04-3.98-0.26-5.96-0.41c-0.34-0.03-0.68-0.07-1.03-0.09
		c-3.14-0.11-4.86,1.71-4.63,4.95c1.91-0.19,3.81-0.45,5.72-0.57c5.66-0.36,10.96,0.81,15.67,4.11c6.08,4.27,8.01,12.27,4.87,19.01
		c-3.55,7.61-9.72,11.67-18,12.73c-5.19,0.66-10.34,0.29-15.41-1.09c-0.32-0.09-0.73-0.01-1.04,0.12c-0.39,0.16-0.76,0.43-1.09,0.71
		c-2.12,1.78-1.82,4.84,0.72,5.87c1.61,0.65,3.42,1.01,5.17,1.13c4.73,0.31,9.49,0.35,14.22,0.62c4.34,0.24,8.65,0.76,12.6,2.8
		c4.01,2.08,6.82,5.1,7.5,9.75c0.6,4.13-3.91,7.32-7.3,9.68c-2.55,1.77-8.7,3.91-11.64,4.78c-8.69,1.95-36.77-0.44-43.03,8.9
		c-4.91-1.4-6.74-4.62-6.74-6.73c1.36-12.9,33.64-6.53,44.48-6.72c0.73-0.01,1.47-0.09,2.18-0.26c4.67-1.1,4.71-4.74-0.59-6.72
		c-6.07-2.22-23.3,1.79-32.43-6.63c-2.11-2.81-1.55-7.59,0.78-10.66c1.46-2.03,3.28-3.6,5.41-4.72c2.09-1.1,4.33-1.91,6.5-2.85
		c0.2-0.09,0.4-0.17,0.71-0.3c-0.34-0.21-0.6-0.36-0.85-0.53c-1.07-0.7-2.17-1.36-3.19-2.13c-4.73-3.56-6.3-8.19-4.65-13.89
		c1.77-6.1,5.8-10.3,11.36-13.12C484.93,62.89,486.77,62.12,488.52,61.33z M504.09,75.4c0-0.97,0.06-1.94-0.01-2.9
		c-0.15-2.04-0.59-4.01-1.7-5.77c-2.47-3.93-7.82-4.47-10.88-0.98c-1.07,1.22-1.93,2.7-2.55,4.2c-1.87,4.51-2.17,9.26-1.77,14.07
		c0.1,1.26,0.42,2.52,0.81,3.73c1.9,5.86,9.45,5.93,12.31,2.27c0.94-1.21,1.72-2.61,2.28-4.04C503.88,82.59,504.1,79,504.09,75.4z"
		/>
	<path class="st0" d="M374.71,116.67c0.29,0.92-0.41,2.32-0.41,2.32c-8.42-0.7-17.55,0-23.87-3.51c-1.4-0.7-1.4-6.32,0-9.83
		c-0.7,0-0.7,0.7-1.08,0.49c-3.51,1.64-6.99,3.26-9.98,5.15c-3,1.89-5.99,3.77-9,5.65c-0.44,0.27-1.05,0.44-1.56,0.4
		c-4.01-0.31-7.91-1.07-11.52-2.95c-5.21-2.72-7.78-7.12-8.34-12.89c-0.51-5.24,0.97-9.8,4.32-13.8c1.82-2.18,13.68-10.54,6.09-16.5
		c-1.51-1.19-3.32-1.87-4.96-2.53c-0.31-0.13-0.66-0.16-1.18-0.29c3.51-2.02,6.32-7.64,10.53-6.94c4.91,0.7,8.42,6.32,7.72,11.94
		c0,6.32-4.21,12.64-5.46,18.92c-0.4,3.36,0.75,6.14,2.54,8.18c1.8,2.04,4.25,3.34,6.6,3.94c4.75,1.26,12.47,1.96,13.88-2.25
		c4.21-8.42,7.02-27.38-7.02-30.19c7.02-5.62,18.96-11.94,21.76-9.13c12.64,11.23-2.11,41.42,9.83,53.69
		C373.96,116.57,374.3,116.62,374.71,116.67z"/>
	<path class="st0" d="M406.87,58.32c9.16,5.92,19.69,1.01,29.59,1.81c3.25,0.09,6.15,0.46,8.94,1.22s5.47,1.94,8.02,3.53
		c1.08,0.67,2.08,1.49,3,2.37c2.11,2.02,3.3,4.51,3.37,7.48c0.05,2.09,0.18,4.18,0.12,6.14c0.34,11.45-3.87,24.79,3.15,34.62
		c-7.02-2.81-20.36,2.81-21.76-7.72c-4.91,3.51-9.83,7.72-16.15,8.42c-10.53,0-20.36-8.42-17.55-19.66
		c4.21-14.74,21.06-16.15,33.7-15.45c-0.7-4.91,2.11-11.94-2.81-15.45c-8.42-4.91-13.34,4.21-19.66,8.42
		c-5.62,3.51-10.53-3.51-11.86-8.52C406.37,63.09,406.29,60.49,406.87,58.32z M441.07,83.05c-8.89,0.14-20.83,7.87-15.92,18.4
		c2.81,5.62,11.23,7.72,14.74,3.51c4.91-5.62,0.7-14.04,1.19-20.89C441.09,83.75,441.08,83.44,441.07,83.05z"/>
	<path class="st0" d="M280.34,82.46c-7.86,2.15-15.4-2.24-14.84-11.26c0.42-6.79,5.86-10.75,10.99-11.72
		c8.45-1.61,15.49,1.19,21.12,7.44c6.08,6.75,8.55,14.82,7.77,23.85c-0.72,8.37-4.21,15.35-10.94,20.5
		c-5.68,4.36-12.2,6.08-19.32,5.73c-11.27-0.54-21.11-7.72-24.54-18.46c-3.44-10.77-0.83-20.24,7.17-28.21
		c2.49-2.48,5.4-4.4,8.74-6.13c-0.21,0.51-0.33,0.81-0.46,1.11c-1.4,3.3-2.9,6.59-3.32,10.19c-0.94,8.17,0.85,15.56,6.83,21.5
		c8.61,8.55,22.98,6.55,28.54-3.87c4.26-7.99,0.76-17.85-7.46-20.83c-3.46-1.26-6.95-1.18-10.26,0.52
		c-1.93,0.99-3.45,2.39-3.36,4.86c0.06,1.61,0.79,2.86,2.01,3.85C279.41,81.85,279.84,82.11,280.34,82.46z"/>
	<path class="st0" d="M543.13,95.12c3.32,3.94,7.13,6.91,12.15,7.95c7.1,1.48,13.91,0.74,20.2-3.11c2.24-1.37,4.44-2.78,6.66-4.17
		c0.26-0.16,0.51-0.32,1.01-0.63c-0.42,1.03-0.72,1.83-1.06,2.63c-4.24,10-12.01,15.83-22.29,18.37c-7.5,1.85-14.93,1.24-21.78-2.63
		c-9.44-5.32-13.68-13.59-13.18-24.32c0.61-13.1,11.58-26.74,26.86-29.31c7.44-1.25,14.43,0.04,20.49,4.87
		c3.98,3.18,6.48,7.34,7.96,12.22C568.69,84.82,556.35,90.74,543.13,95.12z M542.06,92c3.3-1.56,6.63-2.99,9.82-4.67
		c3.92-2.05,7.19-4.93,9.91-8.44c0.38-0.49,0.47-0.87,0.16-1.41c-1.01-1.79-1.9-3.66-3.01-5.39c-0.87-1.36-1.88-2.67-3.03-3.79
		c-3.18-3.09-7.96-3.11-11.29-0.19c-1.41,1.24-2.45,2.74-3.22,4.44c-1.08,2.35-1.59,4.85-1.81,7.42
		C539.23,84.13,539.77,88.11,542.06,92z"/>
	<path class="st0" d="M406.69,114.67c0.21,0.82,0.21,2.22,0.21,2.22c-9.83,1.4-19.66,2.81-29.49,2.11c0,0,0-1.4,0-2.11
		c15.45-16.15,4.21-49.14,0.7-71.61c0-1.4-4.21-2.81-7.02-2.81c7.72-5.62,22.47-12.64,23.87-8.42c9.13,22.47,2.11,50.55,6.02,75.77
		C401.65,113.85,402.7,114.56,406.69,114.67z"/>
	<path class="st0" d="M26.87,215.06c1.74-1.83,3.54-3.54,5.13-5.43c4.05-4.81,6.21-10.51,7.04-16.63
		c0.87-6.38,1.38-12.82,1.88-19.25c0.24-3.08,0.43-6.16,0.6-9.24c0.97-6.23,0.27-11.85-5.55-15.99c-2.13-1.56-4.45-2.56-6.93-3.31
		c-0.4-0.12-0.79-0.26-1.2-0.39c0.97-1.21,2.8-2.59,5.14-3.98c2.32-1.05,5.15-2.08,8.09-1.86c5.63,0.35,12.65,1.05,14.76,4.56
		c9.13,15.45,23.87,25.27,37.91,30.89c5.62,2.11,18.96-9.13,14.74-19.66c-1.4-2.46-4.39-3.86-6.93-5.09
		c-2.55-1.23-4.65-2.28-4.3-4.04c5.52-8.49,16.75-10.6,25.88-14.81c-7.72,5.62-3.51,11.94,2.98,16.21c3.09,2.8,6.25,5.97,8.35,10.53
		c6.32,13.34-8.42,22.47-16.39,30.64c-2.31,2.95-2.35,5.66-2.35,8.37c0.01,2.71,0.01,5.42,0.02,8.13c0.01,3.38,2.14,6.39,5.33,7.51
		c1.88,0.66,1.88,0.66,1.7,2.82H87.62c0-0.6-0.08-1.22,0.04-1.81c0.05-0.24,0.48-0.48,0.78-0.59c1.3-0.47,2.71-0.72,3.9-1.38
		c2.01-1.11,3.12-2.86,3.12-5.29c0-2.56,0.01-5.13,0.02-7.69c0.18-2.58,0.36-5.15,2.14-7.76c7.36-8.38,25.62-16.8,17.19-30.14
		c-4.21,16.15-23.87,18.96-36.24,27.44c-4.15,2.7-6.14,6.02-8.16,9.32c-1.23-2.19-2.5-4.36-3.8-6.52c-1.24-2.12-2.51-4.23-3.73-6.29
		c-4.23-8.51-10.55-15.53-15.46-23.25c-1.87,3.73-1.34,6.04-1.68,10.62c-0.12,1.61-0.21,3.23-0.23,4.85
		c-0.02,1.46-0.04,2.92-0.05,4.38c-0.02,2.45-0.02,4.9,0,7.35c0.06,6.56,1.37,12.96,4.59,18.82c1.58,2.87,3.61,5.38,6.1,7.51
		c0.13,0.11,0.31,0.14,0.47,0.21c-0.06,0.08-0.12,0.16-0.18,0.24C46.58,215.06,36.73,215.06,26.87,215.06z"/>
	<path class="st0" d="M589.33,160.89c0,0.76,0,1.38,0,2.04c-0.58,0.07-1.12,0.15-1.66,0.21c-2.02,0.19-3.4,1.29-3.76,3.22
		c-0.44,2.39-0.69,4.83-0.75,7.25c-0.12,4.43-0.04,8.86-0.04,13.29c0,12.6-0.02,25.19,0.02,37.79c0.01,2.3,0.13,4.61,0.37,6.89
		c0.37,3.41,1.78,4.67,5.19,4.94c0.17,0.01,0.34,0.04,0.59,0.07c0,0.67,0,1.31,0,2.03c-4.83,0-9.67,0-14.52,0c-2.43,0-4.85,0-7.29,0
		c-3.13-0.31-5.94,0.39-8.04-0.31c-0.7-0.7,0-2.11,1.27-1.97c3.94,0.07,5.01-1.94,5.38-5.18c0.21-1.87,0.27-3.76,0.28-5.64
		c0.03-6.59,0.02-13.19,0.01-19.78c0-0.3-0.03-0.6-0.06-1.1c-1.07,0.65-2.04,1.18-2.95,1.8c-4.27,2.9-8.51,5.84-12.78,8.73
		c-0.41,0.28-0.95,0.44-1.45,0.52c-7.07,1.1-12.72-1.52-16.73-7.18c-7.18-10.13-7.65-20.97-1.69-31.72
		c5.77-10.39,14.98-15.71,26.92-15.87c10.26-0.14,20.51-0.03,30.77-0.03C588.69,160.89,588.96,160.89,589.33,160.89z M566.39,186.32
		C566.39,186.32,566.38,186.32,566.39,186.32c0-3.59,0.02-7.18-0.02-10.78c-0.02-1.81-0.03-3.64-0.27-5.43
		c-0.59-4.44-4.68-7.63-9.09-6.53c-4.34,1.08-7.48,3.76-9.76,7.5c-2.53,4.14-3.35,8.75-3.47,13.51c-0.09,3.85,0.22,7.67,1.61,11.31
		c1.74,4.54,4.96,7.32,9.82,8.05c3.54,0.53,6.93-0.01,10.18-1.56c0.73-0.35,1.03-0.7,1.02-1.54
		C566.36,196.02,566.39,191.17,566.39,186.32z"/>
	<path class="st0" d="M281.26,167.6c3.45-9.32,14.69-11.43,21.01-7.92c2.11,1.4,4.21,7.02,3.51,11.23
		c6.32-9.13,16.85-15.45,26.68-6.32c9.83,10.53,16.85,25.98,12.64,40.02c-2.81,11.23-16.15,21.06-27.38,20.36
		c-0.7,0,0.7-4.21,1.4-5.62c9.83-11.94,14.74-27.38,4.91-40.72c-4.21-6.32-14.74-9.83-16.15-4.21c-1.4,11.94,0.7,25.27,0.7,37.91
		c0.7,1.4,2.11,2.11,4.21,2.11c-7.02,4.21-21.06-0.7-30.89,0.7c6.32-3.51,10.53-9.83,11.23-17.55c0-9.13,2.81-22.47-6.78-28.49
		C284.67,168.51,282.99,168.1,281.26,167.6z"/>
	<path class="st0" d="M593.42,167.87c0.44-0.39,0.96-0.85,1.47-1.3c2.63-2.29,5.26-4.58,7.88-6.89c0.46-0.41,0.8-0.55,1.33-0.13
		c0.88,0.68,1.83,1.27,2.72,1.95c3.98,3.07,5.09,7.14,3.75,11.84c-1.17,4.08-2.64,8.07-3.91,12.13c-0.93,2.95-1.56,5.98-0.88,9.06
		c1.13,5.09,4.6,7.87,9.47,9.08c4.62,1.15,8.91,0.05,13.01-2.08c0.23-0.12,0.45-0.52,0.45-0.8c0.01-7.95-0.01-15.91-0.03-23.86
		c0-0.66-0.1-1.32-0.2-1.98c-0.31-2.05-1.37-3.58-3.33-4.34c-1.42-0.55-2.9-0.96-4.58-1.5c7.25-5.96,15.87-8.13,24.9-9.7
		c0,0.52,0,0.92,0,1.33c0,13.57-0.03,27.14,0.03,40.71c0.01,2.33,0.17,4.68,0.57,6.97c0.54,3.08,1.79,4.07,4.91,4.51
		c0.37,0.05,0.75,0.12,1.16,0.19c0,0.68,0,1.32,0,2.01c-7.79,0-15.52,0-23.37,0c0-3.61,0-7.21,0-10.98
		c-0.49,0.28-0.81,0.46-1.13,0.65c-5.84,3.68-11.67,7.37-17.53,11.02c-0.48,0.3-1.17,0.46-1.74,0.42c-3.6-0.24-7.11-0.95-10.41-2.49
		c-5.75-2.68-8.52-7.3-9.03-13.52c-0.45-5.44,1.51-9.96,4.97-13.97c1.71-1.98,3.47-3.92,5.1-5.96c0.83-1.05,1.59-2.23,2.08-3.47
		c1.08-2.7,0.29-5.14-2.23-6.57C597.19,169.24,595.31,168.66,593.42,167.87z"/>
	<path class="st0" d="M261.84,184.76c1.11-7.52-2.4-20.16-12.23-16.65c-4.91,1.4-4.91,9.13-10.53,9.83
		c-9.83,2.11-11.94-8.42-13.34-15.45c2.11,0.7,3.51,2.81,5.62,2.11c15.45-0.7,36.51-8.42,44.23,9.13
		c5.62,12.64-0.7,24.57-2.11,37.21c0,1.4,2.11,2.81,3.51,4.21c0,0-0.7,0-0.93,0.12c-3.16-0.08-6.25-0.15-9.19-0.15
		c-2.93,0-5.86-0.01-8.79-0.03c-0.45,0-0.99-0.26-1.34-0.57c-1.61-1.42-2.24-3.4-2.9-5.5c-0.4,0.32-0.74,0.58-1.08,0.85
		c-4.84,3.83-10.2,6.26-16.52,6.05c-3.91-0.13-7.59-1.09-10.83-3.35c-3.01-2.1-4.91-5-5.6-8.16c-0.69-3.17-0.07-6.59,2.89-9.5
		c10.06-9.26,24.8-9.96,37.16-10.09C260.42,184.83,260.98,184.79,261.84,184.76z M261.37,186.76c-8.25,1.7-17.38,3.81-22.72,10.98
		c-1.34,2.29-1.25,4.7,0.1,6.69c1.35,1.99,3.46,3.41,6.11,3.9c2.84,0.52,5.53-0.06,8.44-1.16c4.74-5.36,5.44-13.08,7.92-19.39
		C261.29,187.46,261.32,187.15,261.37,186.76z"/>
	<path class="st0" d="M421.93,161.96c-8.06,6.92-11.53,19.51-4.53,29.31c4.91,7.02,13.34,6.32,20.36,4.21
		c7.72-2.81,18.57-9.7,17.54-16.15c-0.69-4.91-4.65-7.44-8.41-9.12c-1.8-0.8-3.63-1.23-6.93-0.7c-2.03,0.33-4.13,1.31-6.12,2.49
		c-1.18,0.7-2.14,1.74-2.62,3.02c-0.56,1.51-0.47,3.2,1.63,3.62c-4.21,0.7-9.13,0-11.94-4.21c-2.11-3.51-0.49-8.13,1.4-10.53
		c1.99-2.22,4.27-3.82,6.71-4.87c12.2-5.23,28.39,3.35,31.9,16.8c0.59,2.81,0.8,5.58,0.12,7.98c-6.44,13.79-19.08,25.72-33.82,29.23
		c-16.85,3.51-27.38-16.85-26.68-31.59c0.7-10.53,11.23-17.55,21.27-19.71C421.88,161.86,421.87,161.84,421.93,161.96z"/>
	<path class="st0" d="M147.24,194.39c3.7,4.45,8.11,7.38,13.81,8.18c6.91,0.97,13.31-0.31,19.19-4.12c2.01-1.31,4.05-2.56,6.26-3.96
		c-1.53,4.26-3.41,8.09-6.51,11.22c-7.68,7.77-16.94,11.16-27.8,9.99c-11.37-1.22-20.34-9.25-22.51-20.22
		c-0.8-4.04,1.13-7.95,5.1-11.93c9.52-7.02,15.14-18.96,25.67-25.28c7.72-4.21,16.85,0,23.87,4.91c3.51,3.51,8.42,9.83,4.21,13.34
		c-9.13,7.02-19.66,10.53-31.03,14.07c-3.08,1.23-6.08,2.35-9.13,3.38C148.05,194.09,147.73,194.21,147.24,194.39z M146.13,191.25
		c10.11-4.9,32.57-8.41,24.15-22.45c-7.72-13.34-16.85,7.02-22.04,13.63C146.05,185.49,145.65,188.38,146.13,191.25z"/>
	<path class="st0" d="M670.51,194.38c3.7,4.44,8.1,7.39,13.79,8.18c6.62,0.91,12.85-0.13,18.56-3.74c2.23-1.41,4.49-2.8,6.91-4.31
		c-1.2,3.25-2.43,6.31-4.54,8.88c-7.41,9.01-16.94,13.29-28.61,12.4c-7.78-0.59-14.36-3.82-19.11-10.08
		c-5.47-7.2-6.52-15.4-3.71-23.82c3.88-11.61,11.95-19.12,23.95-21.85c7.96-1.81,15.48-0.42,21.9,5.03
		c3.36,2.85,5.52,6.51,6.97,10.63c0.24,0.69,0.09,1.02-0.51,1.42c-10.73,7.16-22.23,12.74-34.45,16.86
		C671.34,194.08,671.02,194.2,670.51,194.38z M669.39,191.24c2.68-1.2,5.38-2.32,8-3.6c4.51-2.2,8.4-5.21,11.43-9.26
		c0.21-0.28,0.39-0.83,0.26-1.06c-1.58-2.74-3.14-5.5-4.9-8.12c-0.99-1.48-2.47-2.54-4.25-3.08c-3.89-1.19-7.68,0.37-10.1,4.18
		c-2.2,3.48-2.82,7.37-2.9,11.39C666.87,185.04,667.64,188.16,669.39,191.24z"/>
	<path class="st0" d="M217.22,213.06c0,0.67,0,1.29,0,1.98c-9.63,0-19.23,0-28.91,0c0-0.65,0-1.3,0-1.97
		c0.85-0.16,1.67-0.28,2.48-0.46c1.64-0.35,2.8-1.34,3.22-2.95c0.41-1.54,0.78-3.14,0.81-4.71c0.06-3.17,0.1-6.35,0.12-9.52
		c7.63-16.8,15.35-46.98-8.52-54.71c5.62-5.62,16.15-10.53,19.66-6.32c16.15,18.25,15.45,43.53,5.64,66.15c0,2.26,0.1,4.54,0.3,6.79
		C212.38,211.27,213.33,212.26,217.22,213.06z"/>
	<path class="st0" d="M454.98,209.65c8.17-5.04,15.9-12.06,16.54-22.81c0.34-2.79,0.63-5.65,0.82-8.57c0.2-2.92,0.3-5.9,0.29-8.94
		c-0.02-6.09-0.04-12.18-0.06-18.26c-0.01-2.19-0.66-4.18-2.39-5.58c-1.01-0.81-2.24-1.37-3.42-1.94c-0.73-0.35-1.55-0.52-2.36-0.78
		c3.84-4.35,19-9.28,25.01-8.12c0,0.46,0,0.94,0,1.42c0,17.65-0.01,35.29,0.01,52.94c-0.05,1.15-0.09,2.3-0.14,3.44
		c-0.13,3.09-0.76,6.16-2.07,8.97c-1.67,3.57-1.41,7.99,1.92,10.22c-8.42-1.4-17.55-2.11-25.96-2.63
		C460.38,209.11,457.65,209.33,454.98,209.65z"/>
	<path class="st0" d="M393.46,151.99c0.08,7.69-4.13,14.71-9.75,19.63c-1.4-9.83-11.94-14.74-18.96-7.02
		c-9.83,12.64-1.4,30.89,11.23,37.91c10.53,5.62,18.25-7.02,22.47-14.74c-0.7,12.64-0.7,36.51-18.25,33
		c-9.83-2.11-18.96-8.42-24.57-17.55c-7.02-12.64-6.32-28.78,2.81-40.02c7.72-8.42,18.96-7.72,29.49-8.42c2.11,0,3.51-1.4,4.9-2.54
		C392.97,152.15,393.14,152.1,393.46,151.99z"/>
	<path class="st0" d="M495.07,169.49c7.78-5.33,16.1-8.93,25.52-10.03c0,0.41,0,0.82,0,1.23c0,13.43-0.01,26.86,0.01,40.28
		c0,2.06,0.06,4.12,0.2,6.17c0.21,2.88,0.71,5.62,4.44,5.86c0,0.74,0,1.36,0,2.05c-2.29,0-4.59,0-6.92-0.02
		c-8.08,0.12-16.5-1.28-24.93-1.98c2.11-3.51,7.72,0,9.38-5.24c0.26-1.93,0.35-3.89,0.35-5.84c0-8.51-0.02-17.02-0.13-25.53
		c-0.05-3.55-1.36-5.09-4.75-6.09C497.23,170.03,496.2,169.79,495.07,169.49z"/>
	<path class="st0" d="M512.46,135.34c5.05,0.01,9.19,4.22,9.18,9.33c-0.01,5.18-4.15,9.3-9.33,9.28c-5.22-0.01-9.3-4.16-9.29-9.44
		C503.03,139.43,507.24,135.33,512.46,135.34z"/>
	<path class="st0" d="M171.2,134.91c-1.19,0.68-2.38,1.37-3.57,2.05c-1.52,0.87-3.05,1.71-4.56,2.59c-1.57,0.91-1.74,2.38-1.48,3.97
		c0.42,2.54,0.86,5.07,1.28,7.61c0.07,0.43,0.09,0.86,0.13,1.29c-0.14,0.06-0.29,0.13-0.43,0.19c-1.17-1.76-2.34-3.51-3.5-5.28
		c-0.64-0.97-1.23-1.99-1.92-2.93c-0.88-1.19-2.05-1.62-3.55-1.25c-2.6,0.65-5.22,1.23-7.84,1.82c-0.31,0.07-0.65,0.01-1.12-0.31
		c1.46-0.86,2.92-1.74,4.39-2.58c1.16-0.67,2.36-1.28,3.52-1.96c1.51-0.88,1.96-2.19,1.61-3.88c-0.6-2.92-1.14-5.85-1.69-8.78
		c-0.1-0.53-0.13-1.08-0.19-1.62c0.14-0.05,0.29-0.1,0.43-0.15c0.37,0.61,0.75,1.21,1.12,1.82c1.4,2.3,2.79,4.6,4.19,6.89
		c1.2,1.96,2.24,2.46,4.53,1.97c2.51-0.54,5-1.19,7.49-1.79c0.31-0.07,0.64-0.08,0.96-0.13
		C171.08,134.62,171.14,134.76,171.2,134.91z"/>
</g>
<g>
	<path class="st0" d="M454.73,293.83c0.5,0.67,0.92,1.22,1.33,1.78c-1.82,1.73-5.56,3.39-9.66,4.33c-0.12-1.72,0.06-3.54-0.42-5.16
		c-0.95-3.23-2.25-6.34-3.39-9.47c-2.33,2.79-4.54,5.4-6.7,8.06c-0.2,0.25-0.16,0.83-0.02,1.17c0.21,0.49,0.61,0.89,1,1.43
		c-3.02,2.13-6.28,3.54-10.14,4.08c1.53-3.73-0.53-6.71-1.64-9.83c-2.32-6.48-4.77-12.91-7.13-19.37c-0.72-1.96-1.77-3.56-3.9-4.23
		c-0.33-0.11-0.55-0.58-0.82-0.88c0.07-0.12,0.14-0.24,0.21-0.36c2.33,0,4.66,0,7,0c2.55,0,5.1-0.02,7.64,0.02
		c0.36,0.01,0.71,0.31,1.07,0.48c-0.28,0.21-0.53,0.52-0.85,0.62c-1.12,0.37-1.75,1.17-1.5,2.27c0.48,2.12,1.06,4.24,1.79,6.29
		c1.97,5.55,4.03,11.06,6.06,16.58c0.07,0.18,0.19,0.34,0.37,0.65c2.63-3.31,4.48-6.92,5.87-10.77c0.11-0.32-0.07-0.78-0.2-1.14
		c-1.23-3.43-2.45-6.86-3.73-10.27c-0.65-1.73-1.58-3.24-3.62-3.65c-0.23-0.05-0.4-0.43-0.59-0.66c0.33-0.14,0.66-0.4,0.99-0.4
		c3.15-0.03,6.3-0.02,9.44-0.02c1.55,0,3.1-0.03,4.65,0.03c0.31,0.01,0.6,0.32,0.9,0.49c-0.22,0.22-0.4,0.52-0.66,0.65
		c-2.03,0.97-2.46,1.76-1.68,4.05c1.93,5.66,3.96,11.29,5.95,16.94c0.54,1.54,1.11,3.07,1.75,4.86c4.71-5.81,7.77-11.91,6.26-19.38
		c-0.35-1.76-1.62-3.33-2.52-5.07c2.16-1.13,4.57-2.4,7.06-3.71c2.07,2.75,2.43,5.77,1.91,8.9c-1.1,6.67-4.56,12.17-8.86,17.22
		C456.98,291.51,455.88,292.6,454.73,293.83z"/>
	<path class="st0" d="M245.8,264.82c-1.64,1.61-1.46,3.61-1.47,5.55c-0.01,2.33,0,4.67,0,7.08c3.67,0,7.15,0,11.06,0
		c-0.21-2.37-0.2-4.77-0.71-7.05c-0.2-0.9-1.55-1.55-2.45-2.37c3.65-2.69,8.16-3.16,13.12-3.36c-2.42,2.53-1.65,5.48-1.68,8.25
		c-0.06,6.85,0.03,13.7-0.02,20.54c-0.01,1.86,0.49,3.21,2.37,3.85c0.3,0.1,0.49,0.52,0.98,1.07c-5.15,0-9.86,0-15.12,0
		c0.54-0.54,0.77-0.96,1.11-1.09c1.57-0.59,2.24-1.68,2.23-3.34c-0.04-3.89-0.01-7.79-0.01-11.82c-3.61,0-7.16,0-10.86,0
		c0,2.98,0,5.91,0,8.85c0,0.95,0.11,1.9,0.04,2.85c-0.12,1.74,0.58,2.86,2.23,3.46c0.29,0.11,0.49,0.49,0.72,0.75
		c-0.32,0.16-0.63,0.44-0.95,0.45c-4.2,0.03-8.4,0.03-12.6,0c-0.31,0-0.62-0.31-0.93-0.47c0.25-0.24,0.46-0.6,0.76-0.71
		c1.58-0.57,2.21-1.64,2.2-3.32c-0.03-6.6,0.02-13.2,0.03-19.79c0-0.45-0.04-0.9-0.04-1.35c-0.01-2.22-0.53-4.08-3.43-4.46
		C236.53,265.32,241.05,264.86,245.8,264.82z"/>
	<path class="st0" d="M375.71,298.04c0.29-0.21,0.55-0.55,0.87-0.62c1.12-0.23,1.57-0.97,1.69-2.01c0.09-0.79,0.23-1.59,0.23-2.38
		c0.02-6.64,0.02-13.29,0-19.93c-0.01-3.17-0.47-3.73-3.88-4.87c3.19-2.62,6.84-3.38,10.84-3.66c0,4.96,0,9.79,0,14.86
		c0.53-0.25,0.88-0.37,1.18-0.57c1.13-0.73,2.37-1.36,3.34-2.26c2.37-2.21,4.7-1.41,6.93,0.01c3.68,2.35,4.96,5.97,4.86,10.17
		c-0.09,3.75-1.7,6.93-3.97,9.81c-0.83,1.06-1.77,2.04-2.66,3.04c-1.7,1.91-3.35,3.85-3.31,6.71c-1.06-1.15-1.56-2.57-1.53-3.98
		c0.03-1.66,0.34-3.36,0.87-4.94c0.61-1.83,1.64-3.52,2.39-5.31c1.13-2.66,1.45-5.41,0.28-8.14c-1.21-2.82-4.38-4.22-7.22-3.2
		c-0.45,0.16-1.07,0.74-1.07,1.13c-0.05,4.19-0.02,8.39,0.06,12.58c0.03,1.36,0.2,2.76,1.97,3.09c0.1,0.02,0.19,0.21,0.24,0.34
		c0.03,0.08-0.02,0.19-0.05,0.43c-3.93,0-7.88,0-11.83,0C375.86,298.25,375.79,298.15,375.71,298.04z"/>
	<path class="st0" d="M308.47,302.53c-0.54-2.46,0.21-4.45,1.15-6.39c1.53-3.16,2.93-6.35,2.64-10c-0.21-2.77-1.87-5.25-4.32-5.64
		c-1.34-0.21-2.81,0.25-4.2,0.53c-0.24,0.05-0.53,0.68-0.53,1.05c-0.02,4.25-0.02,8.49,0.03,12.74c0.01,1.17,0.2,2.33,1.67,2.65
		c0.21,0.05,0.35,0.39,0.53,0.6c-0.22,0.14-0.45,0.41-0.67,0.41c-3.5,0.03-7,0.03-10.49,0c-0.24,0-0.48-0.24-0.71-0.36
		c0.22-0.22,0.4-0.58,0.65-0.63c1.4-0.25,1.76-1.29,1.77-2.42c0.06-4.4,0.04-8.79,0.02-13.19c-0.01-1.32-0.8-2.1-2.01-2.49
		c-0.5-0.16-1.01-0.28-1.74-0.49c3.27-2.67,6.79-3.83,10.91-3.8c0,1.55,0,2.97,0,4.76c1.98-1.43,3.8-2.54,5.39-3.94
		c1.53-1.35,3.05-1.23,4.7-0.54c3.71,1.57,5.64,4.54,6.14,8.4c0.64,4.94-0.86,9.25-4.2,12.96c-1.56,1.73-2.92,3.64-4.53,5.32
		C310.25,302.51,309.25,302.39,308.47,302.53z"/>
	<path class="st0" d="M335.11,298.4c-4.08,0-8,0-12.32,0c0.43-0.45,0.62-0.83,0.86-0.87c1.46-0.2,1.88-1.21,1.92-2.45
		c0.09-3.09,0.11-6.19,0.15-9.28c0.01-1.15,0.04-2.3-0.04-3.44c-0.14-2.02-0.62-2.54-2.61-3.09c-0.33-0.09-0.66-0.21-1.16-0.38
		c3.13-2.62,6.63-3.75,10.73-3.82c0,1.5,0,2.96,0,4.68c0.58-0.3,0.92-0.44,1.22-0.65c1.26-0.89,2.51-1.81,3.76-2.72
		c2.68-1.94,4.85-1.89,7.48,0.26c3.52,2.88,4.41,6.74,3.97,11.04c-0.35,3.39-1.85,6.27-4.05,8.84c-1.58,1.84-3.04,3.79-4.72,5.54
		c-0.42,0.44-1.43,0.32-2.21,0.47c-0.52-2.3,0.21-4.13,0.94-6.01c1.02-2.63,2.14-5.28,2.72-8.02c0.32-1.54-0.04-3.42-0.64-4.92
		c-1.28-3.2-4.72-4.23-7.74-2.57c-0.31,0.17-0.62,0.66-0.62,1.01c-0.02,4.09-0.04,8.19,0.06,12.28c0.03,1.36,0.07,2.9,1.95,3.27
		C334.89,297.6,334.95,298.02,335.11,298.4z"/>
	<path class="st0" d="M365.45,284.76c-0.12-1.88-0.07-3.59-0.39-5.22c-0.47-2.39-3.21-3.15-5.01-1.49
		c-0.58,0.54-1.06,1.19-1.56,1.81c-1.05,1.29-2.05,2.7-4.02,2.29c-1.56-0.32-2.97-2.25-3.22-4.32c-0.08-0.63-0.01-1.28-0.01-2.16
		c2.52,1.54,4.96,0.91,7.45,0.24c3.63-0.99,7.2-0.87,10.6,0.98c2.12,1.15,3.27,2.81,3.25,5.29c-0.03,3.6-0.01,7.19,0.03,10.79
		c0.02,1.99,0.3,3.9,2.01,5.51c-2.5,0-5.01,0.16-7.48-0.1c-0.7-0.07-1.27-1.34-1.78-1.93c-1.91,0.73-3.87,1.72-5.94,2.2
		c-2.32,0.54-4.58-0.09-6.46-1.63c-2.57-2.1-2.69-5.69-0.28-8.38c2.35-2.61,5.49-3.53,8.84-3.86
		C362.71,284.65,363.96,284.76,365.45,284.76z M365.35,285.53c-2.73,0.52-5.09,1.29-6.46,3.75c-0.93,1.67-0.66,3.91,0.53,5.15
		c1.18,1.23,3.45,1.61,5.12,0.78c0.34-0.17,0.76-0.59,0.77-0.9C365.37,291.43,365.35,288.55,365.35,285.53z"/>
	<path class="st0" d="M291.28,298.5c-2.29,0-4.59,0.06-6.87-0.04c-0.53-0.02-1.11-0.52-1.52-0.94c-0.36-0.37-0.52-0.93-0.62-1.12
		c-2.08,0.8-4,1.9-6.04,2.2c-1.67,0.25-3.62-0.12-5.2-0.8c-3.41-1.47-4.31-5.42-2.11-8.44c2.3-3.17,5.72-4.19,9.39-4.57
		c1.23-0.13,2.48-0.02,4-0.02c-0.13-1.87-0.07-3.58-0.39-5.2c-0.49-2.45-3.34-3.2-5.13-1.42c-0.85,0.84-1.51,1.86-2.33,2.74
		c-1.85,2.01-4.07,1.85-5.39-0.55c-0.71-1.3-0.97-2.85-1.24-4.52c3.24,1.9,6.19,0.37,9.16-0.21c3.05-0.6,5.95-0.24,8.75,1.1
		c2.46,1.17,3.72,3.05,3.68,5.82c-0.04,3.25,0.02,6.5-0.01,9.75C289.39,294.49,289.47,296.67,291.28,298.5z M282.21,285.55
		c-2.53,0.4-4.6,1.14-6.07,3.03c-1.31,1.69-1.35,4.03-0.16,5.56c1.13,1.46,3.43,1.96,5.31,1.08c0.38-0.18,0.87-0.64,0.88-0.98
		C282.24,291.42,282.21,288.58,282.21,285.55z"/>
	<path class="st0" d="M499.94,277.19c-1.48,3.11-2.02,6.02-1.14,9.13c1.46,5.16,6.78,7.84,11.25,5.59c2.47-1.24,3.97-3.88,3.76-6.63
		c-0.18-2.32-1.74-4.37-4.07-5.03c-0.88-0.25-1.9-0.32-2.79-0.15c-2.62,0.51-3.2,2.19-1.59,4.29c-1.68,0.72-3.7,0.16-4.86-1.36
		c-1.2-1.57-1.15-4.23,0.12-5.88c1.82-2.37,5.71-3.05,8.92-1.56c5.05,2.33,7.73,8.59,6.2,14.48c-1.4,5.39-6.14,8.93-11.76,8.75
		c-5.57-0.17-9.96-3.95-10.99-9.45C492.09,284.62,495.12,279.12,499.94,277.19z"/>
	<path class="st0" d="M473.38,277.37c-0.31,2.25-0.89,4.58-0.9,6.92c-0.01,3.61,2.51,6.98,5.78,7.98c2.8,0.86,5.47,0.47,7.61-1.73
		c1.9-1.96,2.46-4.3,1.53-6.91c-0.91-2.53-3.61-4.07-6.21-3.63c-2.76,0.47-3.49,2.23-1.72,4.51c-1.77,0.49-3.31,0.16-4.56-1.07
		c-1.44-1.41-1.62-3.18-0.98-4.99c0.98-2.79,4.3-4.27,7.77-3.47c4.16,0.97,6.52,3.84,7.86,7.7c2.28,6.59-1.2,13.6-7.73,15.62
		c-5.79,1.79-12.06-1.15-14.19-6.66C465.46,286.09,468.09,279.82,473.38,277.37z"/>
</g>
<g>
	<g>
		<path class="st0" d="M688.32,53.41c-1.4,0.23-2.79,0.47-4.19,0.7c-1.78,0.29-3.57,0.56-5.35,0.87c-1.84,0.32-2.54,1.67-2.86,3.31
			c-0.51,2.6-0.99,5.21-1.5,7.81c-0.08,0.44-0.22,0.86-0.33,1.29c-0.16,0.01-0.33,0.02-0.49,0.03c-0.5-2.12-1-4.24-1.49-6.36
			c-0.27-1.17-0.47-2.37-0.8-3.52c-0.42-1.47-1.4-2.31-2.98-2.48c-2.75-0.31-5.49-0.69-8.24-1.06c-0.33-0.04-0.64-0.23-0.98-0.7
			c1.72-0.31,3.44-0.63,5.17-0.92c1.37-0.23,2.75-0.39,4.11-0.62c1.78-0.31,2.68-1.42,2.96-3.18c0.47-3.04,1-6.06,1.53-9.09
			c0.1-0.55,0.26-1.09,0.4-1.64c0.16,0,0.32,0,0.47,0.01c0.14,0.72,0.29,1.44,0.43,2.16c0.52,2.72,1.04,5.45,1.57,8.17
			c0.45,2.33,1.28,3.19,3.68,3.54c2.62,0.39,5.26,0.64,7.89,0.97c0.33,0.04,0.65,0.15,0.97,0.22
			C688.3,53.08,688.31,53.24,688.32,53.41z"/>
	</g>
	<g>
		<path class="st0" d="M602.32,84.12v-5.89h12.38v-1.34h-12.54V74.5h6.33v-1.73h-8.84v-2.27h20.81v2.27h-8.95v1.73h6.21v5.84h-12.41
			v1.32h13.21v2.45H602.32z M602.42,68.97v-7.34h15.28v7.34H602.42z M614.63,63.95h-9.18v2.64h9.18V63.95z"/>
		<path class="st0" d="M625.37,78.95h-2.43v-9.57h7.47v-3.83h-7.58v-2.4h10.6v8.63h-7.47v4.68c2.2,0,6.44-0.13,9.41-0.67l0.26,2.43
			C633.2,78.69,629.27,78.95,625.37,78.95z M640.03,70.03h3.23v2.48h-3.23v11.71H637V61.19h3.03V70.03z"/>
		<path class="st0" d="M649.24,84.25v-8.09h-4.84v-2.4h20.81v2.4h-4.96v8.09h-3.05v-8.09h-4.91v8.09H649.24z M645.26,69.9
			c3.46-0.34,7.39-2.4,7.89-5.15h-6.88v-2.38h17.04v2.38h-6.85c0.54,2.74,4.37,4.68,7.83,5.04l-1.35,2.38
			c-2.97-0.36-6.88-2.4-8.14-4.63c-1.22,2.35-4.99,4.32-8.12,4.71C646.22,71.48,645.73,70.7,645.26,69.9z"/>
		<path class="st0" d="M608.5,96h2.07v-4.24h2.85v11.2h-2.85v-4.55h-2.07v3.57h-9.28v-9.28h9.28V96z M605.68,95h-3.65v4.71h3.65V95z
			 M602.42,114.2v-6.13h12.44v-1.52h-12.59v-2.4h15.62v6.13h-12.44v1.52h13.19v2.4H602.42z M615.04,103.04V91.35h2.87v11.69H615.04z
			"/>
		<path class="st0" d="M624.59,104.54h-3.08v-7.08h7.19v-2.22h-7.29v-2.4h10.34v6.88h-7.19v2.43c2.87,0,7.21-0.18,8.97-0.67
			l0.39,2.28C631.96,104.23,627.72,104.54,624.59,104.54z M631.08,114.41c-4.99,0-7.86-1.71-7.86-4.45c0-2.72,2.87-4.45,7.86-4.45
			c4.99,0,7.89,1.73,7.89,4.45C638.96,112.71,636.07,114.41,631.08,114.41z M626.32,109.97c0,1.22,1.73,2.04,4.76,2.04
			c3.05,0,4.76-0.83,4.76-2.04c0-1.21-1.71-2.07-4.76-2.07C628.05,107.9,626.32,108.75,626.32,109.97z M638.71,99.5v5.71h-3.03
			V91.35h3.03v5.69h3.28v2.46H638.71z"/>
		<path class="st0" d="M643.09,103.22v-2.4h7.78v-2.43h3.03v2.43h10.01v2.4H643.09z M660.82,100.04l-2.95-0.34
			c0.16-0.62,0.29-1.45,0.36-2.33l-12.98,0.59l-0.36-2.22l13.45-0.52v-1.19H645.7v-2.33h15.69
			C661.39,94.97,661.39,97.74,660.82,100.04z M645.46,114.13v-5.82h12.85v-1.4h-12.9v-2.4h15.9v5.9h-12.82v1.32h13.68v2.41H645.46z"
			/>
		<path class="st0" d="M679.81,108.36c-2.43,0.49-6.72,0.75-10.63,0.75h-2.43v-9.57h7.47v-3.83h-7.57v-2.4h10.63v8.63h-7.52v4.68
			c2.2,0,6.77-0.13,9.72-0.67L679.81,108.36z M684.49,91.35v23.04h-3V91.35H684.49z"/>
		<path class="st0" d="M687.84,111.34v-2.38h20.81v2.38H687.84z M705.08,107.85c-0.93-0.1-1.94-0.18-2.9-0.26
			c0.34-1.37,0.57-3.28,0.75-5.27c-4.34,0.21-8.71,0.46-13.06,0.67l-0.39-2.4c4.55-0.18,9.08-0.36,13.57-0.57
			c0.08-1.37,0.13-2.69,0.13-3.78h-12.88v-2.38h15.9C706.22,99.57,705.76,105.13,705.08,107.85z"/>
	</g>
</g>
<g>
</g>
<g>
</g>
<g>
</g>
<g>
</g>
<g>
</g>
<g>
</g>
<g>
</g>
<g>
</g>
<g>
</g>
<g>
</g>
<g>
</g>
<g>
</g>
<g>
</g>
<g>
</g>
<g>
</g>
</svg>
